<svg xmlns="http://www.w3.org/2000/svg" xmlns:xlink="http://www.w3.org/1999/xlink" width="500" zoomAndPan="magnify" viewBox="0 0 375 374.999991" height="500" preserveAspectRatio="xMidYMid meet" version="1.0"><defs><g/></defs><g fill="#ffa7e4" fill-opacity="1"><g transform="translate(69.905858, 227.953355)"><g><path d="M 36.804688 -43.945312 L 5.65625 -43.945312 C 3.570312 -43.945312 1.8125 -42.242188 1.8125 -40.097656 L 1.8125 -32.574219 C 1.8125 -30.484375 3.570312 -28.730469 5.65625 -28.730469 L 13.238281 -28.730469 C 13.457031 -28.730469 13.621094 -28.507812 13.621094 -28.34375 L 13.621094 -3.734375 C 13.621094 -1.648438 15.324219 0.109375 17.523438 0.109375 L 24.992188 0.109375 C 27.082031 0.109375 28.839844 -1.648438 28.839844 -3.734375 L 28.839844 -28.34375 C 28.839844 -28.507812 29.058594 -28.730469 29.277344 -28.730469 L 36.804688 -28.730469 C 38.890625 -28.730469 40.648438 -30.484375 40.648438 -32.574219 L 40.648438 -40.097656 C 40.648438 -42.242188 38.890625 -43.945312 36.804688 -43.945312 Z M 36.804688 -43.945312 "/></g></g></g><g fill="#ffa7e4" fill-opacity="1"><g transform="translate(112.36364, 227.953355)"><g><path d="M 35.980469 -4.667969 L 32.574219 -18.015625 C 32.464844 -18.457031 32.355469 -18.785156 32.1875 -19.0625 C 34.605469 -21.917969 36.144531 -25.433594 36.144531 -30.210938 C 36.144531 -38.617188 31.308594 -43.890625 25.324219 -43.890625 L 5.492188 -43.835938 C 3.351562 -43.835938 1.648438 -42.078125 1.648438 -38.945312 L 1.648438 -3.953125 C 1.648438 -1.921875 3.351562 -0.164062 5.492188 -0.164062 L 12.523438 -0.164062 C 13.621094 -0.164062 14.722656 -0.605469 15.433594 -1.484375 C 16.425781 -2.582031 16.371094 -3.1875 16.371094 -4.066406 L 16.371094 -13.238281 C 16.371094 -13.347656 16.425781 -13.566406 16.644531 -13.566406 C 16.863281 -13.566406 16.972656 -13.402344 16.972656 -13.292969 L 17.414062 -11.039062 L 18.839844 -4.339844 C 19.390625 -1.867188 21.808594 -0.164062 23.675781 -0.164062 L 32.574219 -0.164062 C 34.714844 -0.164062 36.527344 -2.085938 35.980469 -4.667969 Z M 21.367188 -28.785156 L 21.367188 -28.015625 C 21.367188 -26.257812 19.882812 -24.773438 18.128906 -24.773438 L 17.082031 -24.773438 C 16.644531 -24.773438 16.371094 -25.101562 16.371094 -25.488281 L 16.371094 -31.363281 C 16.371094 -31.75 16.644531 -32.078125 17.082031 -32.078125 L 18.128906 -32.078125 C 19.882812 -32.078125 21.367188 -30.597656 21.367188 -28.785156 Z M 21.367188 -28.785156 "/></g></g></g><g fill="#ffa7e4" fill-opacity="1"><g transform="translate(150.317492, 227.953355)"><g><path d="M 41.910156 -4.613281 L 32.574219 -40.152344 C 32.410156 -40.8125 32.242188 -41.800781 31.476562 -42.679688 C 30.652344 -43.503906 29.605469 -43.722656 28.839844 -43.722656 L 14.445312 -43.722656 C 13.621094 -43.722656 12.855469 -43.449219 12.304688 -43.011719 C 11.753906 -42.625 11.152344 -41.964844 10.929688 -40.976562 L 1.042969 -4.667969 C 0.605469 -2.910156 1.429688 -1.042969 3.074219 -0.328125 C 3.515625 -0.109375 3.953125 -0.0546875 4.503906 -0.0546875 L 11.976562 -0.0546875 C 14.007812 -0.0546875 14.832031 -1.316406 15.65625 -3.40625 L 17.25 -7.691406 L 25.652344 -7.691406 L 27.300781 -3.40625 C 28.125 -1.316406 28.949219 0 30.980469 0 L 38.453125 0 C 39.054688 0 39.660156 -0.164062 40.097656 -0.4375 C 41.582031 -1.207031 42.296875 -2.964844 41.910156 -4.613281 Z M 24.058594 -20.378906 L 18.949219 -20.378906 C 18.402344 -20.378906 17.960938 -20.875 18.238281 -21.421875 L 19.664062 -25.15625 L 20.761719 -28.015625 C 20.984375 -28.730469 21.972656 -28.730469 22.191406 -28.015625 L 23.34375 -25.15625 L 24.773438 -21.421875 C 24.9375 -20.875 24.554688 -20.378906 24.058594 -20.378906 Z M 24.058594 -20.378906 "/></g></g></g><g fill="#ffa7e4" fill-opacity="1"><g transform="translate(193.269603, 227.953355)"><g><path d="M 20.542969 -43.890625 L 5.769531 -43.890625 C 3.460938 -43.890625 1.8125 -41.964844 1.8125 -39.933594 L 1.8125 -4.175781 C 1.8125 -2.195312 3.460938 -0.164062 5.769531 -0.164062 L 20.542969 -0.164062 C 29.167969 -0.164062 35.757812 -7.140625 35.757812 -15.433594 L 35.757812 -28.671875 C 35.757812 -36.96875 29.167969 -43.890625 20.542969 -43.890625 Z M 22.355469 -20.707031 C 22.355469 -18.402344 20.652344 -16.808594 18.402344 -16.808594 L 15.765625 -16.808594 C 15.378906 -16.808594 14.996094 -17.082031 14.996094 -17.742188 L 14.996094 -26.3125 C 14.996094 -27.027344 15.378906 -27.355469 15.765625 -27.355469 L 18.402344 -27.355469 C 20.652344 -27.355469 22.355469 -25.707031 22.355469 -23.34375 Z M 22.355469 -20.707031 "/></g></g></g><g fill="#ffa7e4" fill-opacity="1"><g transform="translate(230.399562, 227.953355)"><g><path d="M 17.136719 -32.023438 L 28.289062 -32.023438 C 29.882812 -32.023438 31.199219 -33.34375 31.199219 -34.878906 L 31.199219 -41.03125 C 31.199219 -42.625 29.882812 -43.890625 28.289062 -43.890625 L 5.824219 -43.890625 C 3.570312 -43.890625 1.8125 -42.132812 1.8125 -40.867188 L 1.8125 -5.109375 C 1.8125 -1.867188 3.570312 -0.109375 5.824219 -0.109375 L 28.289062 -0.109375 C 29.882812 -0.109375 31.199219 -1.375 31.199219 -2.964844 L 31.199219 -9.117188 C 31.199219 -10.710938 29.882812 -12.085938 28.289062 -12.085938 L 17.136719 -12.085938 C 16.917969 -12.085938 16.753906 -12.25 16.753906 -12.46875 L 16.753906 -15.984375 C 16.753906 -16.203125 16.917969 -16.371094 17.136719 -16.371094 L 25.214844 -16.371094 C 26.640625 -16.371094 27.851562 -17.523438 27.851562 -19.007812 L 27.851562 -24.992188 C 27.851562 -26.421875 26.640625 -27.628906 25.214844 -27.628906 L 17.136719 -27.628906 C 16.917969 -27.628906 16.753906 -27.792969 16.753906 -27.960938 L 16.753906 -31.585938 C 16.753906 -31.75 16.917969 -32.023438 17.136719 -32.023438 Z M 17.136719 -32.023438 "/></g></g></g><g fill="#ffa7e4" fill-opacity="1"><g transform="translate(263.410072, 227.953355)"><g><path d="M 19.226562 -45.921875 C 18.566406 -45.921875 0.933594 -46.855469 0.933594 -31.585938 C 0.933594 -22.027344 7.855469 -16.535156 17.136719 -16.535156 L 20.433594 -16.535156 C 22.246094 -16.535156 23.730469 -15.433594 23.730469 -13.621094 C 23.730469 -11.863281 22.246094 -10.601562 20.707031 -10.601562 C 19.828125 -10.601562 18.347656 -10.875 17.796875 -13.074219 C 17.632812 -13.511719 17.414062 -13.789062 16.589844 -13.621094 L 1.867188 -11.863281 C 1.042969 -11.699219 0.878906 -11.152344 1.316406 -10.328125 C 3.570312 -4.066406 7.582031 1.976562 21.3125 1.976562 C 28.234375 1.976562 36.96875 -1.8125 36.96875 -13.898438 C 36.96875 -28.785156 23.839844 -27.683594 19.226562 -27.683594 C 17.796875 -27.683594 15.050781 -28.015625 15.050781 -30.652344 C 15.050781 -32.792969 16.863281 -33.726562 18.070312 -33.726562 C 18.949219 -33.726562 20.433594 -33.066406 20.984375 -31.585938 C 21.203125 -30.925781 21.699219 -30.652344 22.246094 -30.652344 L 35.703125 -32.519531 C 36.308594 -32.574219 36.75 -33.179688 36.582031 -34 C 35.980469 -36.96875 33.34375 -45.921875 19.226562 -45.921875 Z M 19.226562 -45.921875 "/></g></g></g><path stroke-linecap="butt" transform="matrix(0.286632, 0, 0, 0.286632, 70.227084, 182.72634)" fill="none" stroke-linejoin="miter" d="M 133.853183 -0.326298 L 25.210129 -0.326298 C 17.919106 -0.326298 11.78647 5.615545 11.78647 13.110989 L 11.78647 39.358671 C 11.78647 46.649694 17.919106 52.78233 25.210129 52.78233 L 51.648604 52.78233 C 52.439033 52.78233 52.997784 53.531875 52.997784 54.090626 L 52.997784 139.94753 C 52.997784 147.238553 58.939627 153.371189 66.625864 153.371189 L 92.682754 153.371189 C 99.932892 153.371189 106.065528 147.238553 106.065528 139.94753 L 106.065528 54.090626 C 106.065528 53.531875 106.855957 52.78233 107.605501 52.78233 L 133.853183 52.78233 C 141.157834 52.78233 147.276842 46.649694 147.276842 39.358671 L 147.276842 13.110989 C 147.276842 5.615545 141.157834 -0.326298 133.853183 -0.326298 Z M 279.128517 136.717675 L 267.244831 90.164154 C 266.863245 88.624181 266.495287 87.452166 265.882023 86.511829 C 274.304177 76.549702 279.687268 64.298058 279.687268 47.590032 C 279.687268 18.303288 262.842961 -0.135505 241.923858 -0.135505 L 172.77498 0.0552886 C 165.293164 0.0552886 159.351321 6.187925 159.351321 17.131273 L 159.351321 139.197986 C 159.351321 146.311844 165.293164 152.44448 172.77498 152.44448 L 197.291896 152.44448 C 201.135015 152.44448 204.964505 150.890879 207.444816 147.810933 C 210.906348 143.967814 210.715555 141.86909 210.715555 138.830028 L 210.715555 106.817668 C 210.715555 106.44971 210.906348 105.645653 211.655893 105.645653 C 212.405437 105.645653 212.827907 106.258917 212.827907 106.640503 L 214.326996 114.490277 L 219.328502 137.835178 C 221.250061 146.502637 229.672214 152.44448 236.172809 152.44448 L 267.244831 152.44448 C 274.726647 152.44448 281.036448 145.69858 279.128517 136.717675 Z M 228.132241 52.591537 L 228.132241 55.262641 C 228.132241 61.395277 222.980827 66.587575 216.848191 66.587575 L 213.195866 66.587575 C 211.655893 66.587575 210.715555 65.415561 210.715555 64.052753 L 210.715555 43.569748 C 210.715555 42.261453 211.655893 41.089438 213.195866 41.089438 L 216.848191 41.089438 C 222.980827 41.089438 228.132241 46.281736 228.132241 52.591537 Z M 432.21274 136.908469 L 399.655257 12.920196 C 399.096506 10.630679 398.483242 7.169146 395.812138 4.075572 C 392.96387 1.227303 389.311544 0.477759 386.599556 0.477759 L 336.393709 0.477759 C 333.545441 0.477759 330.833453 1.404468 328.952778 2.95807 C 327.044846 4.30725 324.89161 6.596767 324.142065 10.017415 L 289.663023 136.717675 C 288.109422 142.850312 290.971319 149.350906 296.722368 151.831216 C 298.262341 152.621645 299.815942 152.812438 301.723874 152.812438 L 327.794391 152.812438 C 334.853736 152.812438 337.756517 148.410568 340.604786 141.119545 L 346.178671 126.196798 L 375.506299 126.196798 L 381.270977 141.119545 C 384.119246 148.410568 387.022027 153.003231 394.081372 153.003231 L 420.151889 153.003231 C 422.250614 153.003231 424.362966 152.44448 425.902939 151.44963 C 431.095238 148.792154 433.575548 142.659518 432.21274 136.908469 Z M 369.946042 81.878281 L 352.120514 81.878281 C 350.198954 81.878281 348.658981 80.202027 349.640203 78.280468 L 354.600824 65.224767 L 358.430315 55.262641 C 359.234372 52.78233 362.641392 52.78233 363.445448 55.262641 L 367.465732 65.224767 L 372.426353 78.280468 C 373.025989 80.202027 371.676809 81.878281 369.946042 81.878281 Z M 507.535139 -0.135505 L 455.980112 -0.135505 C 447.925917 -0.135505 442.174867 6.596767 442.174867 13.669741 L 442.174867 138.448442 C 442.174867 145.330622 447.925917 152.44448 455.980112 152.44448 L 507.535139 152.44448 C 537.62594 152.44448 560.589255 128.104729 560.589255 99.145059 L 560.589255 52.973123 C 560.589255 24.013453 537.62594 -0.135505 507.535139 -0.135505 Z M 513.858568 80.760779 C 513.858568 88.801346 507.916725 94.375231 500.053323 94.375231 L 490.881625 94.375231 C 489.518817 94.375231 488.169637 93.394009 488.169637 91.104492 L 488.169637 61.204484 C 488.169637 58.724173 489.518817 57.552158 490.881625 57.552158 L 500.053323 57.552158 C 507.916725 57.552158 513.858568 63.303208 513.858568 71.548197 Z M 625.186354 41.266603 L 664.067267 41.266603 C 669.641151 41.266603 674.274698 36.687568 674.274698 31.304476 L 674.274698 9.826622 C 674.274698 4.30725 669.641151 -0.135505 664.067267 -0.135505 L 585.705806 -0.135505 C 577.842404 -0.135505 571.709768 5.997131 571.709768 10.439886 L 571.709768 135.177702 C 571.709768 146.502637 577.842404 152.621645 585.705806 152.621645 L 664.067267 152.621645 C 669.641151 152.621645 674.274698 148.233403 674.274698 142.659518 L 674.274698 121.181664 C 674.274698 115.621408 669.641151 110.85158 664.067267 110.85158 L 625.186354 110.85158 C 624.43681 110.85158 623.837174 110.2792 623.837174 109.488772 L 623.837174 97.223499 C 623.837174 96.487583 624.43681 95.87432 625.186354 95.87432 L 653.355596 95.87432 C 658.357101 95.87432 662.568178 91.854036 662.568178 86.702622 L 662.568178 65.783519 C 662.568178 60.822898 658.357101 56.611821 653.355596 56.611821 L 625.186354 56.611821 C 624.43681 56.611821 623.837174 56.012185 623.837174 55.453434 L 623.837174 42.820204 C 623.837174 42.261453 624.43681 41.266603 625.186354 41.266603 Z M 747.66191 -7.19485 C 745.31788 -7.19485 683.841611 -10.479217 683.841611 42.820204 C 683.841611 76.181744 707.97694 95.315568 740.357259 95.315568 L 751.872986 95.315568 C 758.182787 95.315568 763.334202 99.145059 763.334202 105.468488 C 763.334202 111.587496 758.182787 115.989366 752.799696 115.989366 C 749.760634 115.989366 744.568335 115.049028 742.646776 107.376419 C 742.088025 105.836446 741.297596 104.896109 738.435699 105.468488 L 687.071466 111.587496 C 684.209569 112.200759 683.650818 114.122319 685.149906 116.970587 C 693.013309 138.830028 706.995719 159.871784 754.912048 159.871784 C 779.047378 159.871784 809.560649 146.679802 809.560649 104.52815 C 809.560649 52.591537 763.756672 56.434656 747.66191 56.434656 C 742.646776 56.434656 733.052608 55.262641 733.052608 46.050059 C 733.052608 38.609127 739.376037 35.32476 743.627998 35.32476 C 746.680688 35.32476 751.872986 37.627905 753.780918 42.820204 C 754.530462 45.109721 756.261228 46.050059 758.182787 46.050059 L 805.117895 39.535837 C 807.21662 39.358671 808.756593 37.246319 808.197841 34.39805 C 806.099117 24.013453 796.872907 -7.19485 747.66191 -7.19485 Z M 747.66191 -7.19485 " stroke="#ff66c4" stroke-width="3.114264" stroke-opacity="1" stroke-miterlimit="4"/><g fill="#5ce1e6" fill-opacity="1"><g transform="translate(72.182087, 173.106713)"><g><path d="M 30.429688 -21.972656 C 30.925781 -22.464844 34.441406 -25.210938 34.441406 -32.300781 C 34.441406 -35.101562 33.507812 -38.011719 31.75 -40.042969 C 29.828125 -42.296875 27.300781 -43.777344 23.730469 -43.777344 L 5.710938 -43.777344 C 4.121094 -43.777344 3.1875 -42.957031 2.472656 -42.019531 C 1.757812 -41.03125 1.8125 -39.988281 1.8125 -39.988281 L 1.8125 -3.898438 C 1.8125 -3.679688 1.8125 -2.582031 2.691406 -1.59375 C 3.074219 -1.097656 4.011719 -0.164062 5.710938 -0.164062 L 12.6875 -0.164062 L 23.894531 -0.109375 C 26.96875 -0.109375 29.664062 -1.59375 31.585938 -3.789062 C 33.34375 -5.824219 34.496094 -9.171875 34.496094 -11.589844 C 34.660156 -17.742188 31.363281 -21.203125 30.429688 -21.972656 Z M 21.367188 -32.464844 L 21.367188 -31.75 C 21.367188 -30.542969 20.433594 -29.605469 19.171875 -29.605469 L 15.875 -29.605469 C 15.492188 -29.605469 15.269531 -29.828125 15.269531 -30.15625 L 15.269531 -34 C 15.269531 -34.332031 15.492188 -34.605469 15.875 -34.605469 L 19.171875 -34.605469 C 20.433594 -34.605469 21.367188 -33.617188 21.367188 -32.464844 Z M 21.367188 -14.0625 L 21.367188 -12.46875 C 21.367188 -11.261719 20.433594 -10.273438 19.171875 -10.273438 L 15.875 -10.273438 C 15.492188 -10.273438 15.269531 -10.601562 15.269531 -10.875 L 15.269531 -15.710938 C 15.269531 -16.039062 15.492188 -16.257812 15.875 -16.257812 L 19.171875 -16.257812 C 20.433594 -16.257812 21.367188 -15.324219 21.367188 -14.0625 Z M 21.367188 -14.0625 "/></g></g></g><g fill="#5ce1e6" fill-opacity="1"><g transform="translate(107.609182, 173.106713)"><g><path d="M 41.910156 -4.613281 L 32.574219 -40.152344 C 32.410156 -40.8125 32.242188 -41.800781 31.476562 -42.679688 C 30.652344 -43.503906 29.605469 -43.722656 28.839844 -43.722656 L 14.445312 -43.722656 C 13.621094 -43.722656 12.855469 -43.449219 12.304688 -43.011719 C 11.753906 -42.625 11.152344 -41.964844 10.929688 -40.976562 L 1.042969 -4.667969 C 0.605469 -2.910156 1.429688 -1.042969 3.074219 -0.328125 C 3.515625 -0.109375 3.953125 -0.0546875 4.503906 -0.0546875 L 11.976562 -0.0546875 C 14.007812 -0.0546875 14.832031 -1.316406 15.65625 -3.40625 L 17.246094 -7.691406 L 25.652344 -7.691406 L 27.300781 -3.40625 C 28.125 -1.316406 28.949219 0 30.980469 0 L 38.449219 0 C 39.054688 0 39.660156 -0.164062 40.097656 -0.4375 C 41.582031 -1.207031 42.296875 -2.964844 41.910156 -4.613281 Z M 24.058594 -20.378906 L 18.949219 -20.378906 C 18.402344 -20.378906 17.960938 -20.875 18.238281 -21.421875 L 19.664062 -25.15625 L 20.761719 -28.015625 C 20.984375 -28.726562 21.972656 -28.726562 22.191406 -28.015625 L 23.34375 -25.15625 L 24.773438 -21.421875 C 24.9375 -20.875 24.554688 -20.378906 24.058594 -20.378906 Z M 24.058594 -20.378906 "/></g></g></g><g fill="#5ce1e6" fill-opacity="1"><g transform="translate(150.56111, 173.106713)"><g><path d="M 30.429688 -21.972656 C 30.925781 -22.464844 34.441406 -25.210938 34.441406 -32.300781 C 34.441406 -35.101562 33.507812 -38.011719 31.75 -40.042969 C 29.828125 -42.296875 27.300781 -43.777344 23.730469 -43.777344 L 5.710938 -43.777344 C 4.121094 -43.777344 3.1875 -42.957031 2.472656 -42.019531 C 1.757812 -41.03125 1.8125 -39.988281 1.8125 -39.988281 L 1.8125 -3.898438 C 1.8125 -3.679688 1.8125 -2.582031 2.691406 -1.59375 C 3.074219 -1.097656 4.011719 -0.164062 5.710938 -0.164062 L 12.6875 -0.164062 L 23.894531 -0.109375 C 26.96875 -0.109375 29.664062 -1.59375 31.585938 -3.789062 C 33.34375 -5.824219 34.496094 -9.171875 34.496094 -11.589844 C 34.660156 -17.742188 31.363281 -21.203125 30.429688 -21.972656 Z M 21.367188 -32.464844 L 21.367188 -31.75 C 21.367188 -30.542969 20.433594 -29.605469 19.171875 -29.605469 L 15.875 -29.605469 C 15.492188 -29.605469 15.269531 -29.828125 15.269531 -30.15625 L 15.269531 -34 C 15.269531 -34.332031 15.492188 -34.605469 15.875 -34.605469 L 19.171875 -34.605469 C 20.433594 -34.605469 21.367188 -33.617188 21.367188 -32.464844 Z M 21.367188 -14.0625 L 21.367188 -12.46875 C 21.367188 -11.261719 20.433594 -10.273438 19.171875 -10.273438 L 15.875 -10.273438 C 15.492188 -10.273438 15.269531 -10.601562 15.269531 -10.875 L 15.269531 -15.710938 C 15.269531 -16.039062 15.492188 -16.257812 15.875 -16.257812 L 19.171875 -16.257812 C 20.433594 -16.257812 21.367188 -15.324219 21.367188 -14.0625 Z M 21.367188 -14.0625 "/></g></g></g><g fill="#5ce1e6" fill-opacity="1"><g transform="translate(185.988205, 173.106713)"><g><path d="M 17.136719 -32.023438 L 28.289062 -32.023438 C 29.882812 -32.023438 31.199219 -33.34375 31.199219 -34.878906 L 31.199219 -41.03125 C 31.199219 -42.625 29.882812 -43.890625 28.289062 -43.890625 L 5.824219 -43.890625 C 3.570312 -43.890625 1.8125 -42.132812 1.8125 -40.867188 L 1.8125 -5.109375 C 1.8125 -1.867188 3.570312 -0.109375 5.824219 -0.109375 L 28.289062 -0.109375 C 29.882812 -0.109375 31.199219 -1.375 31.199219 -2.964844 L 31.199219 -9.117188 C 31.199219 -10.710938 29.882812 -12.085938 28.289062 -12.085938 L 17.136719 -12.085938 C 16.917969 -12.085938 16.753906 -12.25 16.753906 -12.46875 L 16.753906 -15.984375 C 16.753906 -16.203125 16.917969 -16.367188 17.136719 -16.367188 L 25.210938 -16.367188 C 26.640625 -16.367188 27.847656 -17.523438 27.847656 -19.003906 L 27.847656 -24.992188 C 27.847656 -26.421875 26.640625 -27.628906 25.210938 -27.628906 L 17.136719 -27.628906 C 16.917969 -27.628906 16.753906 -27.792969 16.753906 -27.960938 L 16.753906 -31.585938 C 16.753906 -31.75 16.917969 -32.023438 17.136719 -32.023438 Z M 17.136719 -32.023438 "/></g></g></g><g fill="#5ce1e6" fill-opacity="1"><g transform="translate(218.998571, 173.106713)"><g><path d="M 19.226562 -45.921875 C 18.566406 -45.921875 0.933594 -46.855469 0.933594 -31.585938 C 0.933594 -22.027344 7.855469 -16.535156 17.136719 -16.535156 L 20.433594 -16.535156 C 22.246094 -16.535156 23.730469 -15.433594 23.730469 -13.621094 C 23.730469 -11.863281 22.246094 -10.601562 20.707031 -10.601562 C 19.828125 -10.601562 18.347656 -10.875 17.796875 -13.074219 C 17.632812 -13.511719 17.414062 -13.789062 16.589844 -13.621094 L 1.867188 -11.863281 C 1.042969 -11.699219 0.878906 -11.152344 1.316406 -10.328125 C 3.570312 -4.066406 7.582031 1.976562 21.3125 1.976562 C 28.234375 1.976562 36.96875 -1.8125 36.96875 -13.898438 C 36.96875 -28.785156 23.839844 -27.683594 19.226562 -27.683594 C 17.796875 -27.683594 15.050781 -28.015625 15.050781 -30.652344 C 15.050781 -32.792969 16.863281 -33.726562 18.070312 -33.726562 C 18.949219 -33.726562 20.433594 -33.066406 20.984375 -31.585938 C 21.203125 -30.925781 21.699219 -30.652344 22.246094 -30.652344 L 35.703125 -32.519531 C 36.308594 -32.574219 36.75 -33.175781 36.582031 -34 C 35.980469 -36.96875 33.34375 -45.921875 19.226562 -45.921875 Z M 19.226562 -45.921875 "/></g></g></g><g fill="#5ce1e6" fill-opacity="1"><g transform="translate(256.897326, 173.106713)"><g><path d="M 5.769531 -33.34375 L 2.855469 -33.34375 C 1.757812 -33.34375 0.933594 -34.167969 0.933594 -35.15625 L 0.933594 -42.078125 C 0.933594 -43.066406 1.757812 -43.945312 2.855469 -43.945312 L 5.769531 -43.945312 C 6.8125 -43.945312 7.691406 -43.066406 7.691406 -42.078125 L 7.691406 -35.15625 C 7.691406 -34.167969 6.8125 -33.34375 5.769531 -33.34375 Z M 5.769531 -33.34375 "/></g></g></g><g fill="#5ce1e6" fill-opacity="1"><g transform="translate(265.520666, 173.106713)"><g><path d="M 28.617188 -44.054688 L 21.699219 -44.054688 C 19.5 -44.054688 17.742188 -42.296875 17.742188 -40.097656 L 17.742188 -31.695312 C 17.742188 -30.925781 17.082031 -30.320312 16.257812 -30.320312 C 15.433594 -30.320312 14.777344 -30.925781 14.777344 -31.75 L 14.667969 -41.085938 C 14.667969 -42.734375 13.238281 -44.109375 11.589844 -44.109375 L 3.953125 -44 C 2.253906 -44 0.933594 -42.570312 0.933594 -40.921875 L 1.152344 -20.652344 C 1.207031 -19.003906 2.582031 -17.632812 4.230469 -17.6875 L 16.203125 -17.742188 L 16.425781 -17.742188 C 17.191406 -17.742188 17.742188 -17.191406 17.742188 -16.480469 L 17.742188 -3.953125 C 17.742188 -1.757812 19.5 0 21.699219 0 L 28.617188 0 C 30.816406 0 32.574219 -1.757812 32.574219 -3.953125 L 32.574219 -40.097656 C 32.574219 -42.296875 30.816406 -44.054688 28.617188 -44.054688 Z M 28.617188 -44.054688 "/></g></g></g><path stroke-linecap="butt" transform="matrix(0.75, 0, 0, 0.75, 70.227084, 128.984464)" fill="none" stroke-linejoin="miter" d="M 45.697224 27.713425 C 46.358683 27.051967 51.040975 23.3853 51.040975 13.942591 C 51.040975 10.208216 49.811808 6.328007 47.447225 3.609257 C 44.889933 0.604049 41.530558 -1.380326 36.754516 -1.380326 L 12.744097 -1.380326 C 10.613889 -1.380326 9.379514 -0.270951 8.415972 0.979049 C 7.468055 2.28634 7.540972 3.676966 7.540972 3.676966 L 7.540972 51.79676 C 7.540972 52.098844 7.540972 53.54676 8.718055 54.869677 C 9.218055 55.536344 10.473264 56.786344 12.744097 56.786344 L 22.040973 56.786344 L 36.988891 56.859261 C 41.082641 56.859261 44.676391 54.869677 47.233683 51.937385 C 49.577433 49.239469 51.113892 44.770718 51.113892 41.551968 C 51.348267 33.343634 46.947225 28.729051 45.697224 27.713425 Z M 33.608682 13.708216 L 33.608682 14.676966 C 33.608682 16.286341 32.374307 17.520716 30.697223 17.520716 L 26.296182 17.520716 C 25.775348 17.520716 25.48889 17.234258 25.48889 16.786341 L 25.48889 11.671758 C 25.48889 11.223841 25.775348 10.869674 26.296182 10.869674 L 30.697223 10.869674 C 32.374307 10.869674 33.608682 12.171758 33.608682 13.708216 Z M 33.608682 38.244676 L 33.608682 40.369676 C 33.608682 41.979051 32.374307 43.301968 30.697223 43.301968 L 26.296182 43.301968 C 25.775348 43.301968 25.48889 42.854051 25.48889 42.499885 L 25.48889 36.062384 C 25.48889 35.614468 25.775348 35.328009 26.296182 35.328009 L 30.697223 35.328009 C 32.374307 35.328009 33.608682 36.562384 33.608682 38.244676 Z M 108.238895 50.848844 L 95.796186 3.463424 C 95.577436 2.588424 95.348269 1.265507 94.327436 0.0832153 C 93.238894 -1.005326 91.843061 -1.291785 90.806602 -1.291785 L 71.619101 -1.291785 C 70.530559 -1.291785 69.488893 -0.93241 68.775351 -0.343868 C 68.040976 0.176965 67.218059 1.051965 66.931601 2.354049 L 53.754517 50.775927 C 53.165975 53.119677 54.254517 55.604052 56.457642 56.551969 C 57.046184 56.859261 57.634725 56.926969 58.3691 56.926969 L 68.327434 56.926969 C 71.030559 56.926969 72.139935 55.249886 73.228476 52.458219 L 75.353476 46.755093 L 86.567019 46.755093 L 88.764936 52.458219 C 89.858686 55.249886 90.968061 56.999886 93.665978 56.999886 L 103.624312 56.999886 C 104.431603 56.999886 105.233687 56.786344 105.827437 56.411344 C 107.811812 55.390511 108.759729 53.04676 108.238895 50.848844 Z M 84.43681 29.822801 L 77.62431 29.822801 C 76.895143 29.822801 76.301393 29.176967 76.681602 28.442592 L 78.572227 23.453009 L 80.040977 19.645717 C 80.34306 18.6978 81.650352 18.6978 81.952435 19.645717 L 83.494102 23.453009 L 85.384727 28.442592 C 85.619102 29.176967 85.103477 29.822801 84.43681 29.822801 Z M 150.20244 27.713425 C 150.863898 27.051967 155.54619 23.3853 155.54619 13.942591 C 155.54619 10.208216 154.317023 6.328007 151.95244 3.609257 C 149.395148 0.604049 146.035773 -1.380326 141.259731 -1.380326 L 117.249313 -1.380326 C 115.119104 -1.380326 113.884729 -0.270951 112.921187 0.979049 C 111.973271 2.28634 112.046187 3.676966 112.046187 3.676966 L 112.046187 51.79676 C 112.046187 52.098844 112.046187 53.54676 113.223271 54.869677 C 113.723271 55.536344 114.978479 56.786344 117.249313 56.786344 L 126.546188 56.786344 L 141.494106 56.859261 C 145.587856 56.859261 149.181606 54.869677 151.738898 51.937385 C 154.082648 49.239469 155.619107 44.770718 155.619107 41.551968 C 155.853482 33.343634 151.45244 28.729051 150.20244 27.713425 Z M 138.113897 13.708216 L 138.113897 14.676966 C 138.113897 16.286341 136.879522 17.520716 135.202439 17.520716 L 130.801397 17.520716 C 130.280563 17.520716 129.994105 17.234258 129.994105 16.786341 L 129.994105 11.671758 C 129.994105 11.223841 130.280563 10.869674 130.801397 10.869674 L 135.202439 10.869674 C 136.879522 10.869674 138.113897 12.171758 138.113897 13.708216 Z M 138.113897 38.244676 L 138.113897 40.369676 C 138.113897 41.979051 136.879522 43.301968 135.202439 43.301968 L 130.801397 43.301968 C 130.280563 43.301968 129.994105 42.854051 129.994105 42.499885 L 129.994105 36.062384 C 129.994105 35.614468 130.280563 35.328009 130.801397 35.328009 L 135.202439 35.328009 C 136.879522 35.328009 138.113897 36.562384 138.113897 38.244676 Z M 179.718067 14.301966 L 194.577443 14.301966 C 196.707651 14.301966 198.473276 12.546758 198.473276 10.489466 L 198.473276 2.28634 C 198.473276 0.176965 196.707651 -1.52616 194.577443 -1.52616 L 164.624316 -1.52616 C 161.624315 -1.52616 159.280565 0.81759 159.280565 2.515507 L 159.280565 50.187385 C 159.280565 54.515511 161.624315 56.859261 164.624316 56.859261 L 194.577443 56.859261 C 196.707651 56.859261 198.473276 55.176969 198.473276 53.04676 L 198.473276 44.838427 C 198.473276 42.713426 196.707651 40.89051 194.577443 40.89051 L 179.718067 40.89051 C 179.431608 40.89051 179.197233 40.676968 179.197233 40.369676 L 179.197233 35.687384 C 179.197233 35.400926 179.431608 35.166551 179.718067 35.166551 L 190.483692 35.166551 C 192.395151 35.166551 194.004526 33.630093 194.004526 31.661342 L 194.004526 23.671759 C 194.004526 21.775925 192.395151 20.16655 190.483692 20.16655 L 179.718067 20.16655 C 179.431608 20.16655 179.197233 19.932175 179.197233 19.718633 L 179.197233 14.890508 C 179.197233 14.676966 179.431608 14.301966 179.718067 14.301966 Z M 226.520153 -4.224077 C 225.629528 -4.224077 202.129526 -5.474077 202.129526 14.890508 C 202.129526 27.640509 211.358694 34.953009 223.733695 34.953009 L 228.129528 34.953009 C 230.546195 34.953009 232.509737 36.416551 232.509737 38.833218 C 232.509737 41.176968 230.546195 42.854051 228.488903 42.854051 C 227.327445 42.854051 225.34307 42.499885 224.608695 39.567593 C 224.395153 38.973843 224.087861 38.619676 222.999319 38.833218 L 203.363902 41.176968 C 202.27536 41.406135 202.061818 42.14051 202.634735 43.23426 C 205.634735 51.583219 210.983694 59.630094 229.290987 59.630094 C 238.520154 59.630094 250.176405 54.588427 250.176405 38.473843 C 250.176405 18.630092 232.671195 20.093633 226.520153 20.093633 C 224.608695 20.093633 220.942028 19.645717 220.942028 16.124883 C 220.942028 13.281133 223.358694 12.031133 224.983695 12.031133 C 226.145153 12.031133 228.129528 12.906133 228.863903 14.890508 C 229.150362 15.765508 229.81182 16.124883 230.546195 16.124883 L 248.478488 13.640508 C 249.28578 13.567591 249.874321 12.760299 249.66078 11.671758 C 248.853488 7.703007 245.332654 -4.224077 226.520153 -4.224077 Z M 259.09828 12.546758 L 255.218072 12.546758 C 253.75453 12.546758 252.665988 11.437383 252.665988 10.135299 L 252.665988 0.890507 C 252.665988 -0.416785 253.75453 -1.593868 255.218072 -1.593868 L 259.09828 -1.593868 C 260.494114 -1.593868 261.655572 -0.416785 261.655572 0.890507 L 261.655572 10.135299 C 261.655572 11.437383 260.494114 12.546758 259.09828 12.546758 Z M 301.067033 -1.739701 L 291.843074 -1.739701 C 288.910782 -1.739701 286.567032 0.604049 286.567032 3.536341 L 286.567032 14.749883 C 286.567032 15.765508 285.692032 16.5728 284.582657 16.5728 C 283.488907 16.5728 282.613907 15.765508 282.613907 14.676966 L 282.473282 2.213424 C 282.473282 0.015507 280.556615 -1.812618 278.358698 -1.812618 L 268.186822 -1.666785 C 265.915989 -1.666785 264.16078 0.244674 264.16078 2.426965 L 264.447239 29.463426 C 264.520156 31.661342 266.358697 33.484259 268.540989 33.416551 L 284.50974 33.343634 L 284.811824 33.343634 C 285.832657 33.343634 286.567032 34.078009 286.567032 35.025926 L 286.567032 51.723844 C 286.567032 54.656136 288.910782 56.999886 291.843074 56.999886 L 301.067033 56.999886 C 303.999325 56.999886 306.343075 54.656136 306.343075 51.723844 L 306.343075 3.536341 C 306.343075 0.604049 303.999325 -1.739701 301.067033 -1.739701 Z M 301.067033 -1.739701 " stroke="#0cc0df" stroke-width="1.190199" stroke-opacity="1" stroke-miterlimit="4"/></svg>