<?xml version="1.0" encoding="UTF-8"?>
<svg id="image" xmlns="http://www.w3.org/2000/svg" version="1.1" viewBox="0 0 3000 3000">
  <!-- Generator: Adobe Illustrator 29.4.0, SVG Export Plug-In . SVG Version: 2.1.0 Build 152)  -->
  <defs>
    <style>
      .st0 {
        fill: #fdedf4;
      }

      .st1 {
        fill: #fbca46;
      }

      .st2 {
        fill: #ffd251;
      }

      .st3 {
        fill: #f6a8c2;
      }

      .st4 {
        fill: #fce4ee;
      }

      .st5 {
        fill: #c4762a;
      }

      .st6 {
        fill: #c74265;
      }

      .st7 {
        fill: #f9c553;
      }
    </style>
  </defs>
  <path class="st7" d="M452.21,2284.61c-45.17,0-87.39-12.58-122.08-36.38-46.73-32-77.88-87.3-83.3-147.9-4.96-55.41,12.73-107.44,48.5-142.76,8.51-8.38,18.09-15.57,28.27-21.36-5.47-4.06-10.69-8.43-15.62-13.07-66.42-62.75-85.03-169.84-45.28-260.42,34-77.5,108.93-140.8,200.43-169.34,12.67-3.97,25.74-7.35,39.17-10.14-34.56-8.15-66.71-23.09-93.85-43.81-38.27,34.47-92.67,70.64-164.57,70.64-17.94,0-36.42-2.3-54.93-6.85-94.27-23.23-152.72-109.89-138.99-206.06,2.71-19.52,9.65-39.55,20.6-59.43,9.95-18.29,22.86-35.5,38.27-51.04,15.3-15.52,32.22-28.38,50.22-38.14,12.18-6.55,30.22-13.4,49.71-16.47-12.71-11.99-23.92-25.86-33.06-40.97-13.11-22.13-21.55-46.16-24.55-69.72-10.26-78.06,27.05-161.22,97.4-216.9,61.28-48.42,126.27-75.61,204.55-85.56,18.67-2.35,38.48-3.54,58.89-3.54,59.17,0,120.32,9.77,172.22,27.5,93.69,31.82,141.62,78.85,160.17,157.22,6.98,29.5,9.05,56.53,5.89,81.91,12.67-10.51,25.89-19.86,39.55-27.91,36.18-21.28,81.01-33.48,123.01-33.48,36.34,0,68.32,9.25,92.52,26.42,17.2-7.72,37.61-11.94,58.89-11.94s41.47,4.23,57.71,11.82c3.43-14.13,1.6-22.15-2.42-32.97-1.55-4.19-4.37-8.08-7.95-13.01-7.36-10.12-17.44-23.99-18.23-45.25-1.69-46.34,38.75-83.5,77.16-102.84,22.07-11.06,56.14-24.22,93.42-24.22,27.5,0,51.57,7.22,71.55,21.46,45.25,32.29,60.36,86.54,45.19,161.61,4.53-.33,9.04-.5,13.53-.5,67.3,0,124.2,38.73,150.81,96.76,46.27-52.94,98.7-87.66,153.94-101.53,16.01-4.02,32.78-6.06,49.85-6.06,63.16,0,120.26,26.88,154.06,69.93,36.47-36.74,86.9-73.49,149.84-86.01,13.01-2.56,26.4-3.86,39.84-3.86,68.5,0,131.25,32.75,163.75,85.46,28.15,45.63,34.13,95.64,16.42,137.2-9.53,22.38-25.12,40.81-44.91,53.8,26.24,36.89,37.8,80.05,32.92,124.97-6.89,63.33-46.69,123.22-103.86,156.3-39.02,22.55-84.14,34.47-130.46,34.47-65.83,0-124.94-23.74-167.12-66.18-43.8,40.36-107.19,64.41-173.45,64.41-14.3,0-28.42-1.18-41.98-3.51-27.41-4.66-52.65-13.83-75.15-27-2.02,25.88-6.88,61.04-13.73,91.11,32.69,22.12,50.16,66.09,44.44,101.85-6.99,43.95-32.73,71.5-71.61,77.68-.61,5.61-1.29,11.18-1.99,16.7,39.56-21.7,85.2-33.53,132.09-33.53,26.27,0,51.64,3.68,75.78,10.95,5.73-19.1,1.92-26.24-2.32-34.19-5.98-11.22-15.02-28.17-9.44-54.8,9.1-43.08,48.95-75.78,82.66-99.47,20.3-14.23,73.33-47.73,127.82-51.83,2.94-.22,5.88-.33,8.82-.33,57.04,0,101.36,37.68,103.1,87.67.77,18.85-.2,45.43-9.21,64.07-25.03,51.72-41.97,88.07-56.76,123.72,18.64-13.82,39.45-25.7,62.87-34.74,5.07-2.03,10.74-3.97,16.99-5.81,20.89-6.21,42.72-9.37,64.8-9.37,6.06,0,12.19.24,18.22.72,29.1,2.25,56.07,9.76,80.1,22.32,12.67,6.57,24.42,14.57,34.85,23.73,5.76,5.13,10.71,10.12,15.3,15.41,1.22,1.39,2.41,2.81,3.59,4.26,36.62-47.67,101.27-76.22,179.58-76.22,11.31,0,23.01.6,34.75,1.78,65.51,6.52,125.07,57.66,141.62,121.59,6.42,25.06,4.89,52.87-4.3,78.35-9.29,25.69-25.14,48.04-44.51,63.61,4.33,6.25,8.58,12.81,12.41,20.08,6,11.23,10.95,23.66,14.63,36.81,18.65,66.5-.4,138.53-49.72,187.97-38.56,38.56-100.8,62-166.5,62.74l-4.1.03c-69.53,0-123.72-20.3-176.24-66.99-42.44,38.66-100.58,60.33-164.06,60.33-60.13,0-115.64-19.61-157.37-54.75-30.93,33.63-76.83,54.02-125.43,54.02-31.7,0-61.25-8.86-85.63-25.33-28.98,21.15-65.09,32.56-104.22,32.56-46.04,0-89.78-16.16-122.26-44.27-33.84,27.26-70.22,41.51-106.56,41.51-30.29,0-59.23-9.83-84.98-28.65-27.48,20.16-63.06,31.02-102.97,31.02-52.21,0-103.83-19.3-138.07-51.63-53.29-50.32-75.43-132-59.61-209.32-18.14-3.59-34.63-11.58-48.19-23.17-27.75,43.72-41.43,91.38-47.93,161.85-.43,4.82.02,11.15.5,17.86.98,13.76,2.08,29.36-3.03,45.48-12.75,40.06-50.88,63.95-102,63.95-35.79,0-74.74-11.44-109.67-32.21-43.28-25.75-53.11-66.23-52.64-107.2-19.7,36.39-43.22,70.06-72.19,97.51-46.19,43.76-109.67,68.87-174.18,68.87ZM538.37,1728.18c8.02,1.21,15.69,3.71,22.93,7.5,3.73,1.98,7.26,4.27,10.55,6.86,3.47-9.99,6.94-20.11,10.39-30.31-11.2,2.06-18.88,4.23-23.58,5.78-8.02,2.64-14.83,6.2-20.28,10.17ZM1128.03,1676.35c31.69,8.88,60.19,27.57,80.58,52.93,18.5-12.59,38.91-22.69,60.46-30-26.72-22.96-41.36-58.71-34.4-93.12,4.37-22.15,15.41-42.86,33.72-63.21,25.06-27.72,54.4-56.94,83.66-85.2-7.95-1.49-15.47-3.68-22.49-6.53-15.52,10.19-34.77,15.77-55.56,15.77-30.58,0-58.78-11.75-78.61-31.28-39.99,33.1-77.18,40.88-103.26,40.88-3.51,0-7.01-.14-10.5-.42,15.69,5.07,29.71,16.6,41.66,34.38,32.58,48.74,32.2,114.9,4.74,165.8ZM651.98,1475.79c21.97,1.87,44.65,4.9,67.83,9.08,17.16,3.1,34.73,6.72,51.73,10.22,46.96,9.68,95.51,19.68,140.18,19.68,37.7,0,69.06-7.17,95.87-21.93l5.16-2.89c13.17-7.46,29.55-16.74,49.52-16.78-20.79-4.82-40.66-14.64-58.49-28.94-31.82,19.21-66.99,29.25-102.98,29.25-57.07,0-108.87-25.31-143.68-68.29-27.51,32.07-63.84,56.33-105.15,70.6ZM516.02,1221.48s.04,0,.06,0c3.11-.3,5.34-.5,7.63-.88l2.48-.4c2.13-.4,4.39-.9,6.65-1.4l2.66-.68c2.01-.57,4.84-1.36,7.81-2.48,3.82-1.34,10.02-7.6,13.12-17.45.9-2.83,1.25-5.2,1.33-7.05-4.97-2.9-13.37-6.46-25.68-8.79l-16.06,39.13Z"/>
  <path class="st6" d="M2645.22,1933.51c25.29-11.1,44.11-36.1,53.38-61.68,6.95-19.3,8.59-40.73,3.47-60.71-13.42-51.83-62.26-94.01-115.63-99.32-117.56-11.78-194.59,41.99-210.61,111.68,0-1.83-2.65-13.19-3.81-15.7-6.18-12.84-13.66-25.13-23.12-35.94-3.86-4.44-8.01-8.59-12.45-12.55-8.78-7.72-18.53-14.29-28.96-19.69-21.23-11.1-44.88-17.18-68.63-19.01-24.23-1.93-48.84.58-72.2,7.53-4.92,1.45-9.84,3.09-14.67,5.02-71.52,27.61-117.88,86.46-157.45,152.19,41-125.05,57.71-166.51,113.64-282.11,6.31-13.04,6.83-35.62,6.25-50-1.35-38.61-41.27-61.43-79.79-58.54-38.51,2.9-81.19,24.28-112.85,46.48-27.9,19.59-63.53,47.72-70.57,81.12-8.88,42.37,39.37,35.62-.57,121-86.39-38.32-195.46-17.86-261.96,49.32,1.74-37.16,9.65-73.65,11.49-110.71,45.36,4.54,64.48-20.56,69.69-53.28,5.21-32.62-17.86-73.65-50.29-80.31,12.74-40.83,20.94-109.36,20.17-133.39-1.26-42.76-41.41-75-69.59-75.38,6.28-11.58,20.46-27.41,26.74-38.99,22.68,73.07,76.54,124.51,152.02,137.35,75.38,12.93,165.6-15.35,211.25-76.84,63.12,90.31,191.85,103.18,281.72,51.25,89.77-51.93,130.45-180.29,36.16-266.58,65.01-14.03,100.63-86.52,52.8-164.09-34.54-56.01-107.62-80.69-172.29-67.95-64.57,12.84-119.49,56.27-161,107.33-26.84-71.62-117.18-104.15-191.31-85.52-74.23,18.63-132.62,76.44-175.19,140.05-4.54-92.08-87.54-160.23-191.79-124.9,20.46-62.16,32.14-138.12-21.14-176.15-37.93-27.03-92.56-15.73-134.16,5.12-28.57,14.38-61.87,43.14-60.71,75,.77,20.66,17.18,29.54,24.32,48.94,10.91,29.34,7.34,49.23-13.13,94.78-13.42-37.45-94.88-44.69-132.52-14.57-42.95-47.59-136.19-39.57-196.91-3.86-60.71,35.81-107.52,97.68-135.9,162.25-9.94-15.83-15.83-25.29-25.68-41.02,78.47-67.08,87.84-126.44,71.81-194.11-13.32-56.27-44.11-102.99-140.73-135.81-65.83-22.49-148.64-31.27-217.66-22.59-72.1,9.17-132.72,34.27-189.76,79.34-56.95,45.08-95.75,117.66-86.29,189.67,2.61,20.46,9.94,40.25,20.46,58.01,11.1,18.34,25.77,34.65,43.14,47.3,19.11,13.8,41.21,24.71,64.48,29.44,3.57.68,7.24,1.16,10.91,1.35.96.1,11.49.19,11.49-.39.19,4.73-1.83,9.36-3.96,13.61-8.88,17.66-22.78,38.8-39.38,50.29-9.94,6.85-15.73-2.22-15.06-11.49.48-5.69.58-11.58-.87-17.28-10.62-42.37-71.81-28.09-98.74-13.61-16.02,8.69-30.5,19.98-43.24,32.91-13.03,13.13-24.42,28.09-33.3,44.4-8.4,15.25-14.77,31.85-17.18,49.23-11.97,83.88,40.93,154.14,116.5,172.77,91.99,22.59,158.97-22.3,211.38-75.19,97.2,96.71,283.39,78.38,350.95-48.36,43.05,95.27,160.13,123.55,248.25,55.4,49.13,53.57,124.51,60.13,193.62-16.5,18.82,52.22,95.56,62.55,125.28,25.48,29.25,21.91,76.54,17.37,110.52,3.96-46.23,44.01-102.6,96.62-145.46,144.01-12.93,14.38-22.87,30.11-26.64,49.13-7.14,35.33,19.5,71.52,54.63,80.02,16.12,3.96,77.41,7.62,112.83.87,1.45,16.12,1.35,28.09,10.43,41.41-78.47-35.91-177.89-19.79-240.92,39.19-22.2-49.71-80.11-80.69-133.78-71.43,52.99-38.42,67.66-120.46,31.27-174.9-7.34-10.91-17.28-21.33-30.21-23.65-16.31-2.99-31.66,7.43-46.23,15.44-91.89,50.58-204.34,13.9-307.52-4.73-80.3-14.48-164.57-16.79-242.46,7.62-77.99,24.32-149.13,77.99-181.94,152.79-32.82,74.8-20.94,170.55,38.42,226.63,59.46,56.08,165.44,58.69,219.68-2.32-8.59,24.71-17.76,50.38-36.29,68.92-18.53,18.53-49.51,27.41-71.52,13.13-8.59-5.6-14.96-14.09-23.17-20.37-29.73-22.39-74.32-8.01-100.86,18.15-66.79,65.92-46.81,191.6,30.7,244.68,77.41,53.09,190.63,35.04,258.77-29.54,101.93-96.52,133.88-284.45,173.93-374.02,32.24,9.85,22.01,49.8,8.88,80.89-21.91,51.83-47.49,103.28-54.63,159.16-7.24,55.89-15.83,110.9,32.53,139.67,67.85,40.35,150.77,38.61,167.85-15.06,5.6-17.66-.39-38.61,1.26-57.04,8.69-94.01,29.92-151.15,77.12-209.16,15.06,34.75,51.64,51.25,88.71,43.63-28.76,72.68-16.6,163.51,40.25,217.17,56.85,53.67,168.47,61.19,220.02,2.51,52.41,53.09,125.67,54.37,193.48-14.69,52.51,67.66,165.41,76.08,224.58,14.21,58.2,59.84,169.14,38.32,207.75-35.62,78.76,95.46,246.71,94.4,324.21-1.93,48.74,50.67,100.77,80.5,180.98,79.53,51.35-.58,109.26-17.57,145.65-53.96,41.5-41.6,58.01-102.02,42.08-158.78-2.99-10.71-7.05-21.14-12.26-30.89-5.31-10.04-12.07-19.21-18.63-28.38-3.67-5.12-7.63-10.13-11.97-14.77.48.48,6.85-2.61,7.63-2.99ZM2103.83,1231.99c.87.48,1.74.96,2.61,1.45,3.46,1.9,6.64,4.28,9.53,6.97,2.64,2.46,4.04,4.78,5.22,8.2.88,2.55,1.53,5.19,1.92,7.86.29,2,1.04,5.25-.26,7.03-1.06,1.45-3.81,1.42-5.4,1.33-4.07-.23-8.44-1.59-11.26-4.68-3.25-3.56-3.29-8.98-3.53-13.53-.23-4.58.12-9.19.98-13.7.02-.08.22-.91.19-.93ZM2007.5,1131.51c2.03-3.38,3.28-5.41,3.28-5.41l2.99,5.89,16.02,31.18s-1.06.39-2.9,1.25c-7.05,2.9-26.06,11.29-46.52,23.36-3.18,1.83-6.37,3.76-9.55,5.79,8.11-15.64,28.57-49.03,36.68-62.06ZM584.97,1207.18c-5.5,17.47-17.66,31.76-31.18,36.48-3.86,1.45-7.53,2.51-11,3.48l-3.47.87c-2.61.58-5.21,1.16-8.4,1.74l-2.41.39c-2.99.48-5.89.77-9.07,1.06l-.87.1c-2.32.19-4.73.19-6.95.19h-2.12l-2.32-.1c-2.41-.1-4.73-.29-7.05-.48l-2.32-.19c-2.32-.29-4.63-.68-7.14-1.16l-1.06-.19c-2.7-.48-5.21-1.06-7.72-1.83-.09,0-1.16-.29-1.16-.29-.58-.19-1.16-.29-1.64-.48-1.45-.39-2.9-.87-4.06-1.35l-1.06-.29,39-94.98c37.84,1.74,61.48,13.51,71.43,24.03.1.29.19.48.29.77,3.86,8.88,4.05,20.27.29,32.24ZM599.93,988.85c-.97,1.25-2.03,2.41-3.09,3.47,0,0-2.9,2.8-3.38,3.19,0,0-1.74,1.35-2.22,1.64,0,.1-.1.1-.1.1-.68.48-1.25.96-1.54,1.25,0,0-3.77,2.32-4.34,2.7l-2.12,1.16c-.87.48-1.84.97-2.51,1.25l-2.41,1.06c-.87.39-1.74.77-2.51,1.06l-2.51.87c-.97.39-5.02,1.64-5.02,1.64l-1.93.48-3.67.87s-.77.1-1.83.29c4.25-16.02,9.27-32.34,12.26-41.99l1.74-5.89c7.72-25.1,14.48-41.41,18.92-50.29,5.31,1.83,13.13,5.69,20.56,13.42.1.19.19.48.19.68,7.05,17.37,1.54,42.95-14.48,63.03ZM1020.09,1111.63c0,.1-.1.87-.19,1.06l-.29,2.03c-.48,2.61-.97,5.31-1.55,8.4-.67,3.76-1.54,7.63-2.6,11.97l-.48,2.22c-.97,3.96-1.93,8.01-2.99,12.16-5.7,22.01-26.25,90.25-63.61,99.22-1.16.29-2.22.48-3.38.68-2.22-12.36-1.35-33.98,12.26-62.93,19.21-41.12,46.52-68.14,63.51-79.73-.29,1.64-.39,3.09-.67,4.92ZM623.87,1681.78c-.87,2.7-1.84,5.41-2.7,8.3-12.45,37.84-26.54,78.76-40.64,117.27-.87,2.41-1.74,4.83-2.61,7.14-.48-12.26-4.05-22.3-9.27-29.44-.87-1.25-2.03-2.32-3.09-3.47-1.26-2.61-2.61-5.02-4.15-7.14-.58-.77-1.16-1.54-1.74-2.22-3.47-4.15-7.53-7.53-12.26-10.04-6.27-3.28-13.13-4.92-20.36-4.92-.58,0-2.32,0-2.7.1-8.98.48-16.21,3.38-21.14,5.41l-1.45-.39c-.48-.1-1.93-.68-2.12-.77-.58-.19-1.25-.48-2.22-.97l-1.16-.58-1.06-.68c-.48-.29-.87-.68-1.35-.96-.39-1.35-.58-2.9-.68-4.54-1.93-26.35,21.14-52.8,56.08-64.28,14-4.63,38.13-10.13,76.15-12.45-.48,1.54-.97,3.09-1.54,4.63ZM792.01,1769.6c10.52-26.64,23.07-47.47,28.18-58.09,12.36,3.19,35.65,8.66,51.09,11.84-20.56,8.4-59.16,19.79-79.28,46.25ZM962.32,1748.18c-1.64-2.32-15.35-15.7-25-17.54,22.4-.19,62.95-5.59,71.25-6.46-9.94,6.85-35.53,18.3-46.25,23.99ZM1389.86,1884.77c-.1,1.45-.29,2.9-.48,5.41-.19,1.35-.38,2.8-.67,4.05,0,0-.77,4.15-1.06,5.5,0,0-.96,4.15-1.25,5.41,0,0-1.16,4.54-1.45,5.31l-1.83,5.79-1.74,5.21-1.64,4.34c-.09,0-1.74,4.34-2.41,5.98-17.86,42.66-51.35,88.12-76.06,94.01-1.35.39-2.7.58-3.96.68-1.26-19.4,7.34-54.34,36.2-98.26,22.97-35.42,44.69-51.25,55.88-55.69.19,1.83.48,3.76.48,5.89.1.48.1.97.1,1.45,0,1.45,0,2.9-.1,4.92ZM1451.83,1123.11l-.19,2.7c-.1,1.35-.19,2.8-.29,4.05l-.58,4.73c-.19,1.06-.29,2.22-.58,3.28-.19,1.35-.38,2.61-.87,4.63-.29,1.64-.58,3.28-1.06,5.02-.58,2.41-1.16,4.92-1.83,7.34l-1.16,3.76c-.58,2.03-1.16,4.05-1.83,5.98l-1.45,4.15c-.68,2.03-1.45,4.15-2.22,6.18l-1.55,3.96c-.96,2.32-2.03,4.73-3.09,7.14l-1.45,3.38c-1.54,3.47-3.28,7.05-5.12,10.62-11.39,22.68-30.5,49.8-56.56,49.8-1.16,0-2.32-.1-3.48-.29-1.16-.1-2.32-.29-3.48-.48-3.18-14.86-.67-45.36,24.61-92.56,18.92-35.52,45.46-51.45,58.4-51.45.97,0,1.64.1,2.22.19.29,1.25.58,2.7.87,4.15.39,2.32.58,4.92.68,7.53l.09,2.03c0,1.25-.09,2.51-.09,4.15ZM1504.82,2015.46v2.7c-1.55.29-3.19.77-4.73,1.16,1.64-4.63,3.38-9.56,5.21-14.67-.19,3.67-.48,7.34-.48,10.81ZM1792.36,1881.87c-.09,1.64-.09,3.48-.19,3.86l-.29,2.51c-.48,5.31-1.45,11.1-2.8,17.28l-.77,3.38c-.29,1.35-2.32,8.69-2.32,8.69l-2.7,8.98-1.45,4.25-3.19,8.78-3.38,8.78-3.86,8.88c-1.25,2.7-2.51,5.5-3.76,8.2-16.41,34.17-42.18,58.49-56.95,61.1-.87.19-1.74.29-2.51.29-.38,0-.67-.19-1.06-.29-2.41-14.09,2.12-41.41,19.69-76.06,22.39-44.11,51.44-69.59,65.54-74.8v.29c0,1.25.1,2.51.1,3.19,0,0,0,1.25-.1,2.7ZM1957.02,2020.28c-.29.1-.58.19-.96.19.38-2.41.87-5.02,1.35-7.91-.1,2.32-.29,4.73-.39,7.72ZM2393.88,1966.13c-11,1.45-22.68,5.89-33.78,12.93-2.41,1.64-5.02,3.38-7.43,5.21-3.57,2.7-7.05,5.69-10.42,8.88-2.79-2.96-5.74-5.23-8.65-7.21,8.4-8.57,28.46-30.94,42.69-61.74.68,1.71,1.37,3.42,2.05,5.06.77,1.74,1.54,3.38,2.41,5.12,1.25,2.61,2.6,5.21,3.96,7.63.77,1.35,1.54,2.7,2.9,4.92,0,0,1.93,3.09,2.61,4.15.96,1.54,2.03,2.99,3.09,4.44l2.8,3.86q0,.1.1.19c.48.77,1.06,1.64,1.35,2.12.87,1.35,1.74,2.61,2.7,3.96-2.12.1-4.25.19-6.37.48Z"/>
  <path class="st3" d="M763.63,992.62c28.18-67.47,3.18-143.14-56.18-179.63-59.36-36.58-198.74-57.82-308.77-24.71-109.94,33.11-180.59,102.8-190.24,177.5-9.75,74.61,35.91,123.35,85.9,126.83,50,3.47,66.89-27.61,74.32-43.63,10.62-22.59,16.12-46.23,10.14-53.96-2.61-3.57-19.69-1.54-25.77-15.93-5.98-14.38,15.93-58.4,49.42-79.82,14.96-10.62,37.26-26.83,65.64-25.39-12.93,38.32-65.15,181.36-101.35,264.28-36.29,82.91-63.99,95.17-84.17,100.77-20.17,5.6-46.04-.19-53.38-17.86-7.24-17.76.48-33.4.48-33.4,0,0-23.94-4.54-46.04,5.89-22.1,10.42-87.74,49.03-74.32,146.52,13.51,97.49,114.67,98.16,183.49,70.94,24.61-10.91,76.83-52.51,90.63-93.43,24.61,37.16,58.11,86.19,179.05,79.34,120.85-6.85,159.94-88.99,175.86-142.47,15.93-53.47-2.51-124.32-24.32-143.91-21.91-19.59-47.78-37.74-47.78-37.74,0,0,69.3-12.74,97.39-80.21ZM561.9,1265c-82.91,30.4-140.44-19.59-140.44-19.59l60.04-146.33c59.55-2.61,105.4,15.54,122.87,42.57,29.63,40.44,2.12,107.91-42.47,123.35ZM622.03,1000.15c-28.47,35.62-81.27,38.71-111,32.43-.58-23.74,16.31-76.54,23.17-99.03,6.85-22.49,21.52-65.25,33.69-72.78,7.53-4.73,40.64-.29,63.8,28.09,23.07,28.47,18.73,75.67-9.65,111.29Z"/>
  <path class="st3" d="M1188.13,1048.21c17.47-36.97,12.84-50.87,0-57.91-30.31-13.03-47.68-4.54-68.53,7.63-20.94,12.16-23.36,23.16-26.74,22.97-3.38,0-10.91-21.72-25.09-31.76-21.62-15.15-60.52-19.11-90.83-12.55-94.3,20.37-143.72,86.39-182.42,172.19-38.8,85.81-25.29,188.31,9.94,218.81,35.13,30.5,110.9,26.06,143.43,5.31,32.43-20.75,49.8-50.58,52.02-53.76,2.12-3.09,6.37-1.74,6.66.29.39,2.03-3.86,32.72,20.17,54.53,24.03,21.91,78.76,8.01,91.12-.87,53.86-43.82,57.33-85.23,60.33-100.77,2.9-15.64-11.2-18.92-16.89-14.38-5.6,4.54-21.52,17.47-38.22,5.31-16.7-12.16-5.7-46.43,7.05-76.35,12.64-30.02,40.54-101.64,58.01-138.7ZM1039.97,1148.88c-13.42,51.93-44.4,125-103.76,124.22-31.27-1.74-49.22-52.7-17.95-119.4,31.27-66.7,87.74-112.54,112.93-103.57,26.83,9.56,22.1,46.91,8.78,98.74Z"/>
  <path class="st3" d="M1583.19,1028.14c-19.98-64.19-94.11-72.1-138.7-54.63-43.24,16.99-87.26,66.7-89.96,69.78,1.25-3.86,22.58-66.02,25-76.83,2.41-11.29,40.35-126.73,24.13-160.42-16.21-33.78-67.57-32.43-102.5-11.29-62.06,36.97-37.45,61.39-27.8,85.81,14,38.9,2.22,72.01-9.07,120.75-11.2,48.74-46.91,149.42-64.77,248.74-17.86,99.42,22.88,132.52,49.52,134.65,37.74,3.18,55.5-40.15,55.5-40.15,0,0,34.55,33.3,52.41,36.87,17.95,3.57,123.74-6.27,181.65-101.64,57.91-95.46,64.67-187.54,44.59-251.63ZM1454.24,1205.83c-34.65,68.72-79.73,72.1-104.73,64.28-25-7.82-47.49-55.6,1.93-147.77,27.8-52.22,74.03-78.09,102.8-64.96,36.68,16.7,34.65,79.63,0,148.45Z"/>
  <path class="st3" d="M1945.73,1215.97c-3.28-2.03-14.96,18.82-65.35,46.23-50.48,27.51-105.01,13.8-125.86-11.2-20.85-25-12.07-40.44-12.07-40.44,5.41-5.02,54.15,18.73,106.66-6.27,52.51-25,113.7-95.36,114.96-159.94,1.26-64.57-59.94-98.36-127.89-89.19-67.95,9.17-159.16,51.25-203.76,186.67-44.59,135.42-4.15,215.44,77.12,236.19,81.27,20.85,142.85,14.19,212.44-71.23,37.55-51.64,31.66-86.68,23.74-90.83ZM1823.72,1044.35c23.26-14.19,48.74-16.12,59.17,9.65,10.33,25.77-23.36,65.73-55.89,83.68-32.53,17.86-52.02,20.85-81.66,16.22,5.79-44.59,55.02-95.36,78.37-109.55Z"/>
  <path class="st3" d="M2207.82,1075.27c10.94,20.31,50.62,33.12,82.18,0s14.37-82.8-2.81-102.8c-78.16-90.95-271.22-10.27-260.45,109.51,4.35,48.33,44.99,82.53,84.84,104.33,16.56,9.06,33.75,25.94,39.37,52.18,5.62,26.25-4.37,40.31-21.25,47.18s-47.81,0-61.56-27.19-4.37-57.18-4.37-57.18c0,0-31.46-15.62-58.33,0-26.87,15.62-45.62,52.46-43.12,86.85,4.84,66.6,79.77,100.53,139.07,98.37,63.14-2.3,137.44-26.72,170.12-85.04,23.35-41.67,19.44-102.49-15.77-137.37-33.44-33.12-55.62-37.19-84.68-57.81s-36.18-59.61-9.69-86.56c24.37-24.79,59.84-20.37,69.06.31,4.69,10.52,8.23,33.85-22.6,55.2Z"/>
  <path class="st1" d="M1605.49,1575.99c-11.29,1.25-34.65-.87-34.65-.87,0,0,15.06-108.68,22.59-162.93,7.53-54.15-34.65-65.35-58.78-54.15-24.13,11.29-182.52,175.38-202.5,194.59s-45.85,41.7-40.83,67.08c5.02,25.39,23.36,25.39,46.23,25,22.97-.39,127.5-8.3,127.5-8.3,0,0-6.66,45.37-8.3,53.28-1.74,7.91-1.74,35.04,33.69,33.78,35.42-1.25,48.36-15.83,50.48-26.25,2.03-10.42,9.56-60.81,9.56-60.81,71.23-3.76,70.85-18.34,73.74-32.53,2.9-14.19-7.53-29.15-18.72-27.89ZM1479.63,1573.87l-76.81,5.99c-3.06.24-4.81-3.4-2.72-5.64l89.8-96.26c2.28-2.44,6.34-.43,5.77,2.86l-16.04,93.05Z"/>
  <path class="st3" d="M1051.27,1524.43c2.48-1.97,6.11-1.63,8.06.86,16.06,20.48,27.64,48.03,10.76,94.01-18.12,49.37-80.62,62.81-123.12,60.93-42.5-1.87-125.93-19.17-155.2-29.69-5.62,5.1-19.27,26.46-58.64,133.32-39.37,106.87-83.54,238.73-94.79,269.98-11.25,31.25-54.06,109.58-139.68,141.76-85.62,32.19-164.99-13.75-183.11-58.75-18.12-45-20.62-106.97,31.46-153.01,11.25-11.04,35.41-18.54,44.37-14.79,8.96,3.75,11.46,25.42,29.37,37.5,17.92,12.08,78.12,27.08,121.24-43.33,43.12-70.41,122.18-317.58,123.85-326.75s-1.82-11.67-9.01-11.51-77.34-1.41-127.65,15.16c-50.31,16.56-80.83,56.72-77.91,96.92,2.92,40.21,42.29,51.25,53.95,49.16,6.46-1.04,16.25-8.75,24.58-4.37,8.33,4.37,11.87,27.71-10,62.08-21.87,34.37-61.87,63.64-131.24,48.33s-100.62-105.31-83.12-164.05c17.5-58.75,48.64-141.24,175.82-189.99,37.5-15.62,147.49-20,239.36,0,91.87,20,189.68,44.68,259.98,25.31,29.82-8.97,51.77-24.12,70.65-39.09Z"/>
  <path class="st3" d="M803.83,1800.46c-1.48-1.43-1.79-3.59-.74-5.36,5.34-8.95,24.21-29.54,47.57-38.89,27.08-10.83,59.06-12.19,81.45,5.1,22.39,17.29,16.98,54.06,16.98,54.06,0,0,28.75-29.16,57.6-51.98,28.85-22.81,104.68-64.16,153.22-2.29,10,15.62,16.46,62.91-22.5,114.58-12.08,15.83-50.62,49.58-86.24,31.87-5.42-3.33-7.08-25.62.42-45.83,5.42-14.58-1.04-23.75-11.04-23.75s-47.5,13.12-73.12,43.12c-25.62,30-56.35,87.08-71.77,168.32-10.42,48.33-3.44,78.54-1.09,84.63,2.34,6.09,2.5,19.22-12.19,29.37s-61.25,15.94-92.65-1.09c-31.4-17.03-39.53-56.56-32.34-83.43s40.62-122.23,58.75-177.07c17.46-52.83,6.79-82.94-12.31-101.37Z"/>
  <path class="st3" d="M1489.66,2045.47c-21.23,5.41-43.72-17.95-30.4-54.15,13.32-36.29,32.72-94.3,38.51-105.3,5.89-11.1,27.32-27.32,31.47-35.81,21.91-42.57,12.74-57.72,12.74-57.72-18.14-18.15-45.36-17.28-74.32-2.7-49.42-74.71-171.71-46.43-215.44-15.54-83.3,61.68-137.93,173.74-135.8,275.76,2.03,102.12,97.87,134.65,152.5,116.31,54.54-18.34,81.66-62.55,82.91-66.31,1.16-3.67,9.94-16.22,10.33,2.12.87,27.89,1.74,39.57,29.25,54.53,27.41,15.06,88.7,6.76,114.57-40.83,25.77-47.49,31.18-73.26,25-76.64-6.28-3.28-20.08.87-41.31,6.27ZM1403.86,1935.44c-12.26,29.44-64.96,131.94-126.83,111.87-28.18-9.17-36.29-70.56,19.59-155.59,41.21-63.51,86-82.72,104.53-66.02,30.98,28.67,14.96,80.4,2.7,109.74Z"/>
  <path class="st3" d="M2071.5,1533.72c-13.42-28.09-76.45-14.96-116.79,10.62-33.69,21.33-69.5,57.33-73.64,73.45-4.25,16.12,3.86,16.99,9.07,26.83,9.65,18.34,3.57,45.08,1.06,57.04-2.51,12.07-13.32,44.59-28.57,94.59-48.74-70.07-154.05-63.51-209.35-18.82-55.31,44.69-118.82,153.76-119.4,229.72-.68,75.96,18.14,159.07,111.87,161.58,93.72,2.41,128.08-61,143.43-82.53-1.54,40.64,4.63,57.14,35.33,73.74,30.6,16.6,96.81-3.76,114.38-30.31,17.47-26.54,25.29-56.27,29.05-72.78,3.67-16.6-9.75-15.64-15.93-10.62-6.27,4.92-11.58,7.43-17.57,7.72-5.89.39-37.16,1.93-12.84-90.92,24.42-92.76,54.63-184.65,74.61-242.17,19.98-57.43,35.33-99.61,55.02-128.66,19.69-29.15,26.25-45.66,20.27-58.49ZM1793.51,1970.67c-24.13,50.19-70.36,93.05-105.21,75.38-34.75-17.76-28.48-72.87,0-129.15,28.57-56.27,81.46-109.84,115.44-88.51,33.3,20.75,14,91.99-10.23,142.27Z"/>
  <path class="st3" d="M2305.66,2000.01s-18.53,22.49-43.72,37.93c-25.19,15.54-67.76,27.51-106.08,13.42-38.32-14-53.76-51.16-48.26-59.36,2.8-3.28,7.63-3.09,40.73.96,33.11,4.05,77.99-1.74,116.12-32.05,38.13-30.31,101.06-94.2,64.77-163.41-36.2-69.11-127.89-67.47-204.14-27.03-21.62,12.45-113.32,81.66-135.81,209.93-8.3,50.38-11.29,166.31,119.98,188.41,54.53,7.82,127.12-8.4,180.01-77.12,21.24-32.91,37.84-68.43,28.67-83.11-3.77-5.98-12.26-8.59-12.26-8.59ZM2137.33,1901.17c12.07-23.16,29.44-42.66,47.68-61.58,18.24-18.92,62.64-33.3,70.17-14.19,14.48,31.08-8.5,65.73-45.94,89.67-37.55,23.94-79.05,22.68-83.78,18.15-1.26-2.7,6.08-21.14,11.87-32.05Z"/>
  <path class="st3" d="M2576.97,1869.39c1.09,11.25,26.82,20.73,55.88,7.45,29.06-13.28,30.24-45.97,29.53-61.56-1.04-22.97-12.45-73.07-90.88-81.51-78.43-8.44-147.49,30.62-169.05,95.31-21.56,64.68,14.79,107.18,46.46,134.05,31.66,26.87,52.5,26.61,67.65,61.98,13.12,30.62-11.46,67.5-48.49,53.23-30.45-11.74-40.47-33.12-41.25-42.29-1.51-17.71,4.17-27.91,4.79-31.25s-10.83-18.96-36.46-15.62-63.75,38.96-64.16,86.24,35,94.16,141.66,97.7c59.58.42,120.62-11.67,161.24-81.45,40.62-69.79-16.87-137.7-41.87-157.07-25-19.37-77.5-45.93-74.37-85.93,3.12-40,38.27-57.42,63.43-43.12,24.74,14.06,13.44,53.43-4.11,63.85Z"/>
  <path class="st4" d="M192.01,1202.01c12.82-6.05,26.23-7.05,35.25-6.84,1.05-4.58,2.41-7.49,2.41-7.49,0,0-23.94-4.54-46.04,5.89-22.1,10.42-87.74,49.03-74.32,146.52,3.92,28.26,15.23,48.34,30.96,62.01-11.32-13.12-19.4-30.64-22.58-53.58-13.42-97.49,52.22-136.1,74.32-146.52Z"/>
  <path class="st4" d="M622.03,1000.15c-25.9,32.39-71.85,37.85-102.34,33.86-.2,2.52-.33,4.91-.28,7.01,29.73,6.27,82.53,3.19,111-32.43,28.38-35.62,32.72-82.82,9.65-111.29-3.22-3.95-6.64-7.39-10.15-10.45.59.68,1.2,1.3,1.77,2.01,23.07,28.47,18.73,75.67-9.65,111.29Z"/>
  <path class="st4" d="M561.9,1265c-63.52,23.29-112.02-.56-131.29-13.01l-.76,1.85s57.53,50,140.44,19.59c44.59-15.44,72.1-82.91,42.47-123.35-3.24-5.01-7.46-9.71-12.56-14.04,1.52,1.82,2.94,3.68,4.18,5.6,29.63,40.44,2.12,107.91-42.47,123.35Z"/>
  <path class="st4" d="M290.95,1247.38c20.17-5.6,47.87-17.86,84.17-100.77,36.2-82.91,88.42-225.96,101.35-264.28-3.94-.2-7.72,0-11.42.42-16.67,47.97-64.48,177.94-98.31,255.42-36.29,82.91-63.99,95.17-84.17,100.77-14.29,3.97-31.32,2.09-42.71-5.54,9.33,14.51,32.53,19.13,51.09,13.98Z"/>
  <path class="st4" d="M718.79,1115.83c-1.57-1.99-3.16-3.81-4.78-5.26-13.01-11.64-27.38-22.73-36.94-29.85-1.5.36-2.46.55-2.46.55,0,0,23.13,16.23,44.17,34.56Z"/>
  <path class="st4" d="M390.83,1328.52c6.75,9.7,14.58,19.68,24.61,29-9.55-10.47-16.95-21.4-23.63-31.48-.28.83-.67,1.65-.98,2.48Z"/>
  <path class="st4" d="M380.86,1000.99c-.36-2.41-.95-4.53-2.06-5.96-1.71-2.34-9.59-2.35-16.55-6.06,4.39,8.38,12.67,10.58,18.61,12.02Z"/>
  <path class="st4" d="M216.82,974.22c9.65-74.71,80.31-144.4,190.24-177.5,110.04-33.11,249.41-11.87,308.77,24.71,8.02,4.93,15.35,10.63,22.07,16.87-8.78-9.67-18.96-18.24-30.46-25.31-59.36-36.58-198.74-57.82-308.77-24.71-109.94,33.11-180.59,102.8-190.24,177.5-6.1,46.65,9.47,83.19,34.21,104.87-19.71-22.16-31.2-55.34-25.83-96.43Z"/>
  <path class="st4" d="M1101.25,1029.33c3.38.19,5.79-10.81,26.74-22.97,20.85-12.16,38.22-20.66,68.53-7.63.15.08.27.2.42.29-2-3.77-4.96-6.62-8.8-8.72-30.31-13.03-47.68-4.54-68.53,7.63-17.66,10.25-22.12,19.6-25.12,22.19,3.11,5.25,5.34,9.22,6.77,9.22Z"/>
  <path class="st4" d="M1014.96,1327.88c-.29-2.03-4.54-3.38-6.66-.29-.29.41-.83,1.27-1.62,2.49.7,11.34,4.23,29.52,20.07,43.9.58.53,1.27.95,1.89,1.44-16.64-20.85-13.33-45.72-13.68-47.53Z"/>
  <path class="st4" d="M804.46,1367.6c.46.4,1.01.73,1.48,1.12-29.91-37.21-39.19-131.57-3.04-211.49,38.71-85.81,88.12-151.83,182.42-172.19,30.31-6.56,69.21-2.61,90.83,12.55.46.33.86.75,1.3,1.1-2.82-3.57-6.02-6.95-9.68-9.54-21.62-15.15-60.52-19.11-90.83-12.55-94.3,20.37-143.72,86.39-182.42,172.19-38.8,85.81-25.29,188.31,9.94,218.81Z"/>
  <path class="st4" d="M1045.04,1061.25c10.24,16.71,5.14,47.89-5.07,87.63-13.42,51.93-44.4,125-103.76,124.22-5.46-.3-10.49-2.19-14.95-5.33,6,8.31,14.05,13.25,23.33,13.76,59.36.77,90.35-72.3,103.76-124.22,12.32-47.93,17.24-83.43-3.31-96.07Z"/>
  <path class="st4" d="M1131.46,1271.7c16.7,12.16,32.62-.77,38.22-5.31,2.07-1.65,5.26-2.23,8.34-1.59-2.18-8.94-12.12-10.51-16.72-6.85-5.28,4.28-19.73,15.99-35.35,7.14,1.33,2.59,3.11,4.85,5.51,6.6Z"/>
  <path class="st4" d="M1454.24,1205.83c-34.65,68.72-79.73,72.1-104.73,64.28-2.8-.88-5.55-2.33-8.19-4.21,4.75,6.54,10.57,10.78,16.57,12.65,25,7.82,70.07,4.44,104.73-64.28,32.2-63.96,36.18-122.77,7.15-144.17,19.39,26.05,13.12,78.84-15.53,135.74Z"/>
  <path class="st4" d="M1452.88,981.94c33.09-12.96,82.41-11.89,113.83,15.73-30.36-35.8-86.02-38.35-122.22-24.17-27.54,10.82-55.34,34.87-72.63,51.74-4.56,13.56-8.43,24.91-8.94,26.48,2.7-3.09,46.71-52.8,89.96-69.78Z"/>
  <path class="st4" d="M1264.29,1001.3c-11.2,48.74-46.91,149.42-64.77,248.74-12.61,70.18,4,107.22,24.22,123.74-15.98-19.44-26.64-55.19-15.84-115.3,17.86-99.32,53.57-199.99,64.77-248.74,11.29-48.74,23.07-81.85,9.07-120.75-9.65-24.42-34.26-48.84,27.8-85.81,28.23-17.08,67.16-21.22,89.63-4.36-19.72-26.16-65.8-23.56-98.01-4.08-62.06,36.97-37.45,61.39-27.8,85.81,14,38.9,2.22,72.01-9.07,120.75Z"/>
  <path class="st4" d="M1827.01,1137.69c-28.82,15.82-47.45,19.94-71.93,17.46-.55,2.41-1.04,4.81-1.35,7.19,29.63,4.63,49.13,1.64,81.66-16.22,32.53-17.95,66.21-57.91,55.89-83.68-2.96-7.31-7.15-12.32-12.14-15.53,1.39,2.1,2.67,4.41,3.76,7.09,10.33,25.77-23.36,65.73-55.89,83.68Z"/>
  <path class="st4" d="M1654.32,1348.85c-34.73-39.58-43.95-106.15-13.52-198.57,44.59-135.42,135.8-177.5,203.76-186.67,39.08-5.27,75.86,3.73,99.87,24.56-23.22-26.77-64.26-38.93-108.25-33-67.95,9.17-159.16,51.25-203.76,186.67-32.74,99.41-19.53,168.84,21.9,207.01Z"/>
  <path class="st4" d="M1888.77,1270.64c40.27-21.91,55.79-39.59,62.08-44.78-1.03-5.33-2.98-8.77-5.12-9.89-3.28-2.03-14.96,18.82-65.35,46.23-45.4,24.74-93.99,16.11-118.5-4.06.35.44.64.85,1.01,1.3,20.85,25,75.38,38.71,125.86,11.2Z"/>
  <path class="st4" d="M2179.44,1114.75c27.46,19.49,48.79,24.22,79.27,52.62-.99-1.08-1.92-2.22-2.97-3.25-33.44-33.12-55.62-37.18-84.68-57.81-1.47-1.05-2.85-2.17-4.21-3.3,3.57,4.32,7.74,8.3,12.59,11.74Z"/>
  <path class="st4" d="M1993.42,1349.63c-12.72-14.38-21.19-32.08-22.71-53.03-2.5-34.39,16.25-71.23,43.12-86.85,17.72-10.3,37.38-7.02,48.75-3.58.64-3.06,1.19-4.85,1.19-4.85,0,0-31.45-15.62-58.33,0-26.87,15.62-45.62,52.46-43.12,86.85,1.84,25.26,13.78,45.79,31.1,61.47Z"/>
  <path class="st4" d="M2238.81,1028.51c-2.1-4.72-5.62-8.55-10.02-11.42.6.96,1.17,1.94,1.64,2.98,4.69,10.52,8.23,33.85-22.6,55.2,2.26,4.2,5.8,8.03,10.18,11.25-.64-.92-1.28-1.85-1.8-2.81,30.83-21.35,27.29-44.68,22.6-55.2Z"/>
  <path class="st4" d="M2138.09,1294.11c16.87-6.87,26.87-20.94,21.25-47.18-3.96-18.5-13.71-32.26-24.89-41.99,7.48,8.81,13.58,19.88,16.51,33.55,5.62,26.25-4.37,40.31-21.25,47.18-12.37,5.04-32.26,2.59-47.43-9.74,15.35,19.62,40.99,24.21,55.81,18.17Z"/>
  <path class="st4" d="M2286.12,971.34c-78.81-89.06-270.1-8.61-259.38,110.63,2.56,28.51,17.81,52.07,38.02,71.11-15.95-17.43-27.44-38.24-29.64-62.67-10.36-115.21,167.84-194.18,250.99-119.07Z"/>
  <path class="st4" d="M1613.87,1584.43c2.51-.28,4.95.35,7.24,1.51-3.6-6.32-9.45-10.63-15.62-9.94-6.65.74-17.41.3-25.2-.18-.68,4.92-1.07,7.75-1.07,7.75,0,0,23.36,2.12,34.65.87Z"/>
  <path class="st4" d="M1498.28,1486.39l-4.38,4.7-14.27,82.78-67.89,5.29-3.25,3.49c-2.09,2.24-.34,5.88,2.72,5.64l76.81-5.99,16.04-93.05c.57-3.29-3.49-5.3-5.77-2.86Z"/>
  <path class="st4" d="M1340.52,1561.07c19.98-19.21,178.37-183.29,202.5-194.59,12.57-5.83,29.98-5.5,42.77,3.72-12.35-17.16-35.51-19.41-51.15-12.16-24.13,11.29-182.52,175.38-202.5,194.59s-45.85,41.7-40.83,67.08c2.09,10.58,6.52,16.71,12.6,20.28-1.84-3.15-3.27-7.04-4.22-11.84-5.02-25.39,20.85-47.87,40.83-67.08Z"/>
  <path class="st4" d="M1465.13,1698.13c1.64-7.91,8.3-53.28,8.3-53.28,0,0-3.65.28-9.74.73-2.03,13.67-5.77,38.45-6.94,44.11-1.25,5.69-1.52,21.24,11.51,29.11-4.42-7.69-4.01-16.66-3.13-20.67Z"/>
  <path class="st4" d="M313.83,1736.64c17.5-58.75,48.64-141.24,175.82-189.99,37.5-15.62,147.49-20,239.36,0s189.68,44.68,259.98,25.31c29.82-8.97,51.77-24.12,70.65-39.09,1.26-1,2.81-1.39,4.3-1.22-1.49-2.19-3.02-4.32-4.62-6.36-1.95-2.49-5.58-2.82-8.06-.86-18.89,14.98-40.84,30.12-70.65,39.09-70.31,19.37-168.12-5.31-259.98-25.31-91.87-20-201.86-15.62-239.36,0-127.18,48.75-158.32,131.24-175.82,189.99-13.26,44.53,1.53,106.94,39.65,141.24-31.82-35.42-43.51-91.72-31.27-132.81Z"/>
  <path class="st4" d="M355.39,1992.3c10.86-10.66,33.62-17.91,43.26-15.04-2.23-3.91-4.43-7-7.27-8.19-8.96-3.75-33.12,3.75-44.37,14.79-52.08,46.04-49.58,108.01-31.45,153.01,4.47,11.11,12.71,22.27,23.83,32.31-6.89-7.69-12.19-15.79-15.45-23.87-18.12-45-20.62-106.97,31.46-153.01Z"/>
  <path class="st4" d="M429.13,2015c17.92,12.08,78.12,27.08,121.24-43.33,43.12-70.41,122.18-317.58,123.84-326.75,1.58-8.71-1.53-11.37-8.01-11.48-.05.92-.17,1.93-.37,3.04-1.67,9.17-80.72,256.34-123.84,326.75-43.12,70.41-103.33,55.41-121.24,43.33-.96-.65-1.71-1.41-2.59-2.11,2.91,3.83,6.44,7.49,10.97,10.55Z"/>
  <path class="st4" d="M513.61,1794.65c5.65-.91,13.85-6.93,21.4-5.48-1.15-3.66-3-6.17-5.2-7.33-8.33-4.37-18.12,3.33-24.58,4.37-6.59,1.18-22.04-1.85-34.75-11.96,13.31,16.85,34.98,21.85,43.14,20.4Z"/>
  <path class="st4" d="M765.78,2087.34c7.19-26.87,40.62-122.23,58.75-177.07,17.46-52.83,6.79-82.94-12.31-101.37-1.48-1.43-1.79-3.59-.74-5.36,5.34-8.95,24.21-29.54,47.58-38.89,26.77-10.71,58.3-12.08,80.65,4.59-2.09-2.9-4.56-5.6-7.58-7.93-22.39-17.29-54.37-15.94-81.45-5.1-23.36,9.35-42.23,29.93-47.57,38.89-1.05,1.76-.74,3.93.74,5.36,19.1,18.43,29.77,48.55,12.31,101.37-18.13,54.84-51.56,150.2-58.75,177.07-6.38,23.85-.6,57.59,22.71,76.8-16.2-19.65-19.86-47.7-14.33-68.36Z"/>
  <path class="st4" d="M957.49,1823.82s28.75-29.17,57.6-51.98c26.58-21.01,93-57.69,141.25-14.99-48.61-55.56-121.48-15.7-149.63,6.56-19.19,15.17-38.28,33.1-48.95,43.45.79,9.64-.27,16.97-.27,16.97Z"/>
  <path class="st4" d="M1059.98,1870.17c4.68-12.58.49-21.1-7.17-23.21,1.16,3.88.99,8.85-1.21,14.77-7.5,20.21-5.83,42.5-.42,45.83,1.65.82,3.31,1.42,4.98,2.03-2.22-8.77-1.67-24.62,3.82-39.42Z"/>
  <path class="st4" d="M1498.05,2053.91c15.92-4.05,27.67-7.4,35.19-7.44.12-3.91-.65-6.39-2.26-7.27-6.28-3.28-20.08.87-41.31,6.27-7,1.78-14.12.38-20.06-3.52,6.58,10,17.66,14.7,28.44,11.96Z"/>
  <path class="st4" d="M1542.88,1794.86c-.46-1.59-.9-2.37-.9-2.37-17.83-17.83-44.44-17.22-72.83-3.37,2.41,2.87,4.75,5.85,6.9,9.1,25.22-12.69,49.1-14.96,66.84-3.36Z"/>
  <path class="st4" d="M1362.25,2104.68c.7,21,1.91,32.54,16.33,43.8-6.94-9.49-7.49-20.56-8.03-37.9-.29-13.78-5.32-10.12-8.3-5.89Z"/>
  <path class="st4" d="M1409.54,1834.13c-.71-.64-1.53-1.13-2.32-1.66,22.49,29.48,7.99,75.81-3.36,102.97-12.26,29.44-64.96,131.94-126.83,111.87-1.89-.62-3.67-1.51-5.37-2.58,3.63,5.47,8.3,9.25,13.75,11.02,61.87,20.08,114.57-82.43,126.83-111.87,12.26-29.34,28.28-81.08-2.7-109.74Z"/>
  <path class="st4" d="M1260.6,1782.69c39.38-27.82,142.47-53.48,198.67-3.74-53.67-60.83-165.62-33.97-207.05-4.7-83.3,61.68-137.93,173.74-135.8,275.76.8,40.29,16.23,69.7,37.94,89.47-17.21-19.39-28.86-46.15-29.56-81.04-2.13-102.02,52.51-214.08,135.8-275.76Z"/>
  <path class="st4" d="M1942.82,2062.4c5.98-.29,11.29-2.8,17.57-7.72,2.18-1.77,5.25-2.97,8.16-3.15-.14-10.96-11.12-9.7-16.54-5.29-6.27,4.92-11.58,7.43-17.57,7.72-1.64.11-5.22.3-9.04-1.46,5.54,10.53,14.53,10.09,17.42,9.9Z"/>
  <path class="st4" d="M1661.65,1785.87c49.62-40.1,139.37-49.31,192.52-.21-51.6-58.56-148.59-50.51-200.9-8.23-55.31,44.69-118.82,153.76-119.4,229.72-.12,13.11.41,26.42,1.74,39.51,1.42.17,2.72.44,3.75.98,3.07,1.68,3.26,8.9-.45,21.51,5.68,29.54,16.99,56.31,37.55,74.66-27.53-31.69-34.61-81.29-34.19-128.22.58-75.96,64.09-185.03,119.4-229.72Z"/>
  <path class="st4" d="M1797.55,2094.64c-2.28,3.2-5.06,7.41-8.32,12.11,1.19,19.75,6.47,32.23,19.56,42.93-9.96-12.64-12.23-28.8-11.24-55.04Z"/>
  <path class="st4" d="M1813.41,1837.85c18.93,27.96,1.45,88.5-19.9,132.82-24.13,50.19-70.36,93.05-105.21,75.38-2-1.02-3.82-2.19-5.55-3.45,3.6,4.86,8.14,8.93,13.93,11.89,34.84,17.66,81.08-25.19,105.21-75.38,23.88-49.57,42.88-119.4,11.52-141.26Z"/>
  <path class="st4" d="M1899.58,1710.1c2.51-11.97,8.59-38.71-1.06-57.04-5.21-9.85-13.32-10.71-9.07-26.83,4.15-16.12,39.96-52.12,73.64-73.45,34.26-21.72,84.77-34.36,107.48-20.51-14.98-26.03-76.28-13.03-115.86,12.07-33.69,21.33-69.5,57.33-73.64,73.45-4.25,16.12,3.86,16.99,9.07,26.83,9.65,18.34,3.57,45.08,1.06,57.04-2.49,11.94-13.11,43.98-28.11,93.1,2.75,3.16,5.45,6.38,7.92,9.93,15.25-50,26.06-82.53,28.57-94.59Z"/>
  <path class="st4" d="M1997.64,1988.86c22.49-128.28,114.18-197.48,135.81-209.93,63.76-33.82,138.19-40.32,182.07-1.21-42.24-48.35-122.44-43.31-190.45-7.23-21.62,12.45-113.32,81.66-135.81,209.93-6.03,36.58-9.2,107.68,39.72,152.37-40.15-44.78-37-109.58-31.34-143.93Z"/>
  <path class="st4" d="M2164.24,2059.8c38.32,14.09,80.88,2.12,106.08-13.42,25.19-15.44,43.72-37.93,43.72-37.93,0,0,2.17.67,4.8,2.1-.29-.67-.56-1.35-.93-1.95-3.77-5.98-12.26-8.59-12.26-8.59,0,0-18.53,22.49-43.72,37.93-25.19,15.54-67.76,27.51-106.08,13.42-10.43-3.81-19.11-9.36-26.19-15.55,8.11,9.46,19.56,18.51,34.57,23.99Z"/>
  <path class="st4" d="M2209.23,1915.07c-28.48,18.15-59.19,21.81-74.45,20.54-.87,2.96-1.32,5.24-.94,6.04,4.73,4.54,46.23,5.79,83.78-18.15,37.45-23.94,60.42-58.59,45.94-89.67-1.45-3.68-4.28-6.09-8.01-7.5,13.59,30.84-9.24,65.03-46.31,88.73Z"/>
  <path class="st4" d="M2600.4,1943.03c2.2,1.7,4.66,3.8,7.27,6.23-5.75-6.24-11.22-11.23-15.66-14.67-13.05-10.11-33.53-22.2-49.74-37.11,16.84,18.89,42.7,33.6,58.12,45.55Z"/>
  <path class="st4" d="M2576.97,1869.39c.37,3.79,3.58,7.36,8.74,9.94-.15-.5-.3-1-.35-1.51,17.2-10.21,28.32-48.19,5.45-62.93,10.85,17.53.67,45.88-13.83,54.49Z"/>
  <path class="st4" d="M2410.83,1837.52c21.56-64.68,90.62-103.74,169.05-95.31,30.05,3.23,50.2,12.6,63.76,24.2-13.11-15.33-35.09-28.65-72.15-32.64-78.43-8.44-147.49,30.62-169.05,95.31-19.22,57.66,7.58,97.66,36.06,124.71-24.96-26.73-44.99-64.33-27.68-116.27Z"/>
  <path class="st4" d="M2476.45,2086.77c37.03,14.27,61.61-22.6,48.49-53.23-5.85-13.64-12.55-21.96-20.38-28.61,4.37,5.26,8.35,11.67,12,20.17,13.13,30.62-11.46,67.5-48.49,53.23-9.94-3.83-17.52-8.72-23.49-13.85,6.4,8.02,16.53,16.38,31.88,22.29Z"/>
  <path class="st4" d="M2403.54,1997.61c12.45-1.62,21.5,1.26,27.5,5.01-2.51-5.34-13.98-16.29-35.88-13.44-25.62,3.33-63.75,38.96-64.16,86.24-.2,22.67,7.97,45.19,28.15,62.94-14.04-16.2-19.93-35.29-19.76-54.51.42-47.29,38.54-82.91,64.16-86.24Z"/>
  <g>
    <path class="st0" d="M244.24,973.54c15-75.09,109.68-170.08,315.92-177.27-83.12-4.69-139.67-8.48-225.61,37.5-26.56,15.31-96.24,59.55-90.31,139.77Z"/>
    <path class="st0" d="M505.37,883.58c-27.71,36.75-48.33,81.33-57.29,129.04,27.71-43.96,57.7-101.83,57.29-129.04Z"/>
    <path class="st0" d="M841.91,1124.28c27.19-67.5,66.25-107.81,144.99-130.62l2.5,8.12s-56.87,16.87-147.49,122.49Z"/>
    <path class="st0" d="M1322.06,808.25l3.57,11.87s-31.56,14.37-25.62,47.18c-14.69-21.87-15.57-46.56,22.06-59.06Z"/>
    <path class="st0" d="M1826.53,980.12c2.81,5.31,1.56,9.37-13.12,14.06s-105.31,68.75-143.43,132.18c7.19-35.31,39.19-87.8,89.37-121.55,22.5-17.5,66.22-30.19,67.18-24.69Z"/>
    <path class="st0" d="M2052.25,1071.88c6.25-57.5,31.28-85.41,103.97-112.91l3.94,13.33s-83.74,24.76-99.99,97.79l-7.92,1.79Z"/>
    <path class="st0" d="M2037.25,1211.15c-40.62,16.87-58.12,38.24-53.75,70.37,16.25-27.87,29.06-34.43,42.81-49.74,13.75-15.31,10.94-20.62,10.94-20.62Z"/>
    <path class="st0" d="M937.11,1592.47l-12.87,15.83s42.45,5.83,84.53-17.5c23.33-11.25,34.68-25.23,45.46-51.99-23.38,30.74-70.04,52.82-117.13,53.65Z"/>
    <path class="st0" d="M338.19,1758.4c1.25-60.93,17.15-120.3,79.97-165.93,26.58-18.75,75.95-45.93,160.01-50,40.62.62,68.75,3.44,68.75,3.44,0,0-105.93,6.56-164.05,29.69-58.12,23.12-127.18,85.31-144.68,182.8Z"/>
    <path class="st0" d="M390.69,1984.95l2.5,10.42s-50.77,27.86-63.33,86.66c-1.67-34.58-2.08-65.83,60.83-97.08Z"/>
    <path class="st0" d="M881.64,1773.29l6.1,10.01s-31.87,27.5-38.33,47.08l-15-28.75s16.46-28.34,47.23-28.34Z"/>
    <path class="st0" d="M1005.65,1806.32c21.56-35.31,63.75-67.81,102.18-54.37-41.25,9.37-61.3,24.29-82.86,47.6l-19.32,6.77Z"/>
    <path class="st0" d="M1361.72,1769.75c-4.79-9.58-19.58-10-26.66-8.54-7.08,1.46-46.25,9.17-87.08,46.46-18.33,18.54-36.46,58.75-47.71,86.45,29.16-42.91,63.61-87.73,132.91-114.37,6.67-1.87,28.54-10,28.54-10Z"/>
    <path class="st0" d="M1761.89,1773.29c-39.77-9.36-86.65,5.38-131.64,64.56-24.37,32.31-33.12,56.27-33.12,56.27l8.75,4.79s28.75-61.38,91.87-104.02c17.5-9.72,50.8-19.74,64.15-21.61Z"/>
    <path class="st0" d="M1987.1,1551.12s6.67,11.87,6.67,11.87c0,0-42.29,31.87-58.33,48.96-16.04,17.08-14.79,34.16-14.79,34.16,0,0-10.83-15-11.25-21.46-.22-3.48,2.02-7.3,3.59-10.24,2.45-4.61,5.35-8.99,8.42-13.21,8.87-12.18,20.98-21.25,33.41-29.51,8.76-5.83,17.51-11.69,26.44-17.26.33-.21,5.68-3.62,5.85-3.32Z"/>
    <path class="st0" d="M2205.32,1762.21c2.64-.51,5.3.87,6.5,3.27l3.59,7.19s-82.49,21.25-158.11,116.24c15.94-38.12,30.26-65.58,79.06-98.12,17.44-10.94,42.98-23.55,68.97-28.58Z"/>
    <path class="st0" d="M2423.94,1847.12l10.42,2.53s30.5-65.83,99.58-84.58c-10.83-7.5-35.41-10-78.33,23.33-12.92,12.08-23.33,29.1-31.66,58.72Z"/>
    <path class="st0" d="M2399.67,2009.53c5.42,3.05-3.33,11.25-8.12,17.5-4.79,6.25-31.46,37.91-32.5,58.33-3.96-24.17-2.29-43.96,14.37-61.04,12.5-13.33,22.92-16.67,26.25-14.79Z"/>
  </g>
  <g>
    <g>
      <path class="st5" d="M2946.31,1183.71c-1.78-1.8-3.91-3.24-6.35-4.29-2.43-1.01-5-1.53-7.63-1.53h-63.44c-2.63,0-5.23.53-7.75,1.58-2.34,1-4.4,2.4-6.14,4.15-3.75,3.72-5.82,8.69-5.82,13.98v357.98c0,5.29,2.04,10.24,5.73,13.9,1.8,1.81,3.92,3.25,6.34,4.28,2.43,1.01,5,1.53,7.63,1.53h63.44c10.87,0,19.71-8.84,19.71-19.71v-357.98c0-5.27-2.04-10.21-5.73-13.89Z"/>
      <path class="st5" d="M2815.7,1301.58c-2.3-.97-4.73-1.46-7.22-1.46h-65.73c-10.24,0-18.56,8.33-18.56,18.56v238.04c0,10.24,8.32,18.56,18.56,18.56h65.73c10.24,0,18.56-8.33,18.56-18.56v-238.04c0-7.47-4.45-14.18-11.34-17.11Z"/>
      <path class="st5" d="M2685.76,1391.53h-67.77c-9.67,0-17.54,7.87-17.54,17.54v152.43c0,9.68,7.87,17.54,17.54,17.54h67.77c9.67,0,17.53-7.87,17.53-17.54v-152.43c0-9.68-7.86-17.54-17.53-17.54Z"/>
      <path class="st5" d="M2560.46,1454.64h-69.64c-4.39,0-8.66,1.76-11.7,4.83-3.17,3.13-4.9,7.31-4.9,11.79v91.18c0,4.47,1.72,8.63,4.82,11.71,3.09,3.12,7.39,4.9,11.78,4.9h69.64c9.15,0,16.6-7.45,16.6-16.61v-91.18c0-4.47-1.73-8.66-4.9-11.79-3.14-3.12-7.3-4.83-11.7-4.83Z"/>
      <path class="st5" d="M2899.02,1104.68l15.23,10.84c3.38,2.42,7.35,3.69,11.47,3.69,10.86,0,19.58-8.49,19.84-19.34l3.5-139.65c.01-.57-.09-1.11-.12-1.67l.12-4.77c.27-10.55-7.77-19.46-18.28-20.28-.31-.03-1.21-.06-1.53-.06-3,0-5.9.66-8.63,1.98l-118.93,57.42c-2.77,1.32-4.38,3.1-4.39,3.15-3.98,3.5-6.4,8.12-6.81,12.99-.16,1.73-.06,3.46.24,5.17-.07.43-.2.84-.24,1.27-.3,3.35.27,6.76,1.66,9.87,1.44,3.22,3.72,5.99,6.58,8l24.1,17.15c-1.08,2.38-2.08,4.56-2.08,4.56-2.33,5.08-4.69,10.14-7.57,16.04l-.53,1.08c-2.33,4.79-4.7,9.57-7.13,14.28l-1.37,2.58c-2.37,4.57-4.77,9.12-7.26,13.67l-1.87,3.28c-2.38,4.3-4.79,8.6-7.31,12.87l-2.37,3.9c-2.45,4.11-4.92,8.22-7.5,12.32l-2.77,4.26c-2.58,4.01-5.17,8.01-7.9,12.02l-4.25,6.09c-2.38,3.42-4.74,6.84-7.24,10.25l-5.05,6.71c-2.44,3.27-4.87,6.54-7.42,9.78l-6.49,8.04c-2.32,2.88-4.63,5.77-7.04,8.65-1.13,1.35-7.22,8.33-7.24,8.35-2.44,2.84-4.87,5.68-7.46,8.55-.1.11-.3.33-.47.51,15.35-18.85,26-43.28,25.61-70.38-.01-.76-.11-1.48-.13-2.24.04-1.4.15-2.79.13-4.21-.57-38.91-14.8-71.43-40.05-91.57-1.79-1.46-3.61-2.86-5.63-4.26-1.53-1.04-3.06-2.05-4.6-2.98-4.43-2.68-8.32-4.68-12.25-6.29-4.04-1.66-7.95-3.22-11.77-4.7-1.96-.76-10.92-4.07-10.93-4.08-2.97-1.07-5.97-2.1-8.91-3.08l-1.54-.52c-2.89-.96-5.81-1.89-8.74-2.79v-57.34c6.39,4.17,12.33,9.05,17.71,14.57,2.38,2.45,4.67,5,6.86,7.66.64.77,1.2,1.59,1.88,2.59l1.64,2.31c3.07,4.21,7.35,6.87,12.38,7.7,1.08.18,2.18.26,3.3.26,5.93,0,10.96-2.5,14.23-4.13l33.29-15.74c7.59-3.58,12.28-11.26,11.96-19.59-.05-1.16-.15-2.49-.28-3.9.08-.86.31-1.67.28-2.55-.41-10.27-3.64-30.45-20.63-50.11-.52-.61-1.07-1.21-2.15-2.37-2.17-2.37-4.46-4.71-6.86-6.84-1.79-1.64-3.91-3.37-6.28-5.12-.82-.6-1.75-1.23-2.68-1.84l-1.54-1.04c-1-.68-1.99-1.35-3.1-2.05-1.59-.99-3.35-1.98-5.12-2.99-.02,0-3.12-1.75-3.12-1.75-2.34-1.27-4.84-2.52-8.02-4.05l-1.08-.53c-2.9-1.37-5.93-2.7-9.96-4.38-3.37-1.38-6.85-2.7-10.74-4.09-7.05-2.5-14.37-4.71-21.97-6.62v-27.73c0-.75-.07-1.58-.18-2.17-.52-5.39-2.93-10.38-6.77-14.02-.47-.46-1.1-.97-1.57-1.29-1.11-.91-2.88-2.23-5.32-3.26-2.75-1.15-5.66-1.73-8.63-1.73h-27.5c-12.39,0-22.46,10.08-22.46,22.47v22.08c-1.43.16-2.87.36-4.42.58-45.31,9.51-96.18,47.64-105.73,102.11-.78,4.38-1.25,8.66-1.6,12.95l-.21,3.51c-.15,2.99-.17,6.02-.09,9.55-.06,2.35-.07,4.76.01,7.61l.06,2.1c.26,4.31.73,8.4,1.4,12.25l.41,1.89c.66,3.37,1.48,6.67,2.44,9.82.3,1,.61,1.99.96,3.05,1.2,3.5,2.55,6.93,3.95,9.85.11.28.43,1.01.57,1.28,1.67,3.44,3.66,6.91,6.12,10.69l1.4,2.02c1.92,2.78,4.01,5.47,6.54,8.45l1.4,1.62c3.01,3.36,5.99,6.33,9.11,9.09,12.41,10.96,28.16,20.12,46.88,27.24,9.96,3.59,21.45,6.92,30.81,9.52v69.68c-1.81-.46-3.48-.96-5.01-1.5-1.67-.6-3.33-1.41-5.68-2.65-1.76-.99-3.51-2.08-5.17-3.23l-.92-.66c-1.85-1.31-3.67-2.7-5.71-4.4-1.93-1.61-3.81-3.28-5.59-4.94-5.33-5.01-10.65-10.74-16.28-17.52l-3.54-4.27c-5.77-6.59-12.46-10.07-19.37-10.07-.53,0-2.01.09-2.53.15-4.03.51-6.89,2.4-8.86,3.71l-41.1,23.82c-4.96,2.88-8.57,7.71-9.89,13.25-.66,2.76-.74,5.61-.26,8.38-.69,4.94.31,10.03,3.06,14.27.98,1.51,2.18,3.28,3.49,5.17,0,0,.99,1.41.99,1.42,1.37,1.93,2.86,3.98,4.48,6.1l1.27,1.64c1.43,1.87,2.98,3.79,5.19,6.47l1.03,1.25c1.96,2.32,4.07,4.69,6.32,7.14l2.22,2.35c2.4,2.53,4.89,5.06,7.57,7.59,11.15,10.54,22.91,19.21,34.96,25.77.41.21.81.41,1.21.57,14.88,6.25,35.45,10.96,58.13,13.32v30.52c0,2.95.57,5.84,1.71,8.59.97,2.33,2.24,4.04,2.99,4.97.46.66.98,1.34,1.47,1.86,4.31,4.55,10.1,7.06,16.3,7.06h24.88c-53.84,41.47-126.96,82.72-218.14,122.74-5.27,2.31-8.45,3.78-9.18,4.22-1.84,1.07-3.5,2.46-5.11,4.3-.62.74-1.17,1.56-1.48,2.09-.41.58-1.27,2.06-1.57,2.71-.62,1.36-1.08,2.8-1.39,4.34-.1.45-.2.92-.25,1.33-.28,1.95-.16,3.85.14,5.7-.05.25-.11.52-.14.75-.76,5.35.71,10.47,4.13,14.42,2.58,2.97,7.38,6.51,15.56,6.51,2.97,0,6.13-.46,9.63-1.41,28.55-7.72,139.82-51.14,272.2-146.22,118.2-84.9,190.55-180.36,224-231.33ZM2645.77,1127.88c.92.85,1.88,2,2.93,3.53,2.59,3.77,4.06,8.59,4.55,13.64-.11,1.21-.14,2.42-.39,3.61l-.15.84c-.13.53-.96,3.19-.96,3.19l-1.3,2.95-.65,1.19c-.29.48-.58.94-.87,1.34l-.84,1.15c-.3.4-.63.75-1.07,1.22l-.7.74c-.38.36-.79.68-1.4,1.16l-.67.55c-.39.27-.82.5-1.61.94l-.71.43c-.87.41-1.77.79-2.76,1.09-1.13.34-2.29.66-3.47.96v-44.87c4.52,2.21,7.9,4.33,10.07,6.34ZM2669.34,1252.14c11.75-4.47,23.67-12.17,34.32-22.23-1.52,1.64-3.01,3.28-4.6,4.93-1.68,1.76-3.46,3.53-5.24,5.32l-6.01,6.08c-1.96,1.99-3.91,3.97-5.99,5.99-2.14,2.1-4.41,4.23-6.98,6.65,0,0-9.87,9.38-11.73,11.09-2.91,2.69-5.99,5.41-9.7,8.7l-2.9,2.57s-5.99,5.4-7.59,6.78c-2.43,2.12-5.01,4.26-7.56,6.39.09-.79.33-1.54.33-2.35v-31.86c11.83-1.84,23.11-4.53,33.64-8.06ZM2557.17,1001.65c-5.6-3.92-8.64-10.39-9.35-19.08.08-1.79,0-3.43.25-5.38.97-7.84,4.12-21.7,14.26-26.52.3-.15.62-.28.95-.41v54.46c-1.85-.63-4.01-1.6-6.11-3.06Z"/>
    </g>
    <g>
      <path class="st2" d="M2671.23,1042.46c-17.91-7.37-33.11-12.84-50.26-17.55v-95.97c15.43,5.97,29.35,15.37,40.89,27.2,2.65,2.72,5.18,5.55,7.6,8.47,1.45,1.76,2.67,3.73,4.02,5.56,1.03,1.41,2.3,2.1,3.67,2.33,3.56.59,7.86-1.98,10.83-3.38,5.43-2.56,10.86-5.12,16.29-7.69,5.25-2.48,10.49-4.96,15.73-7.44,2.64-1.25,4.32-3.9,4.21-6.82-.37-9.43-3.77-30.92-25.29-49.92-12.29-11.34-42.45-26.57-77.96-33.7v-38.43c0-4.95-4.01-8.96-8.96-8.96h-27.5c-4.95,0-8.96,4.01-8.96,8.96v34.62c-5.06.21-10.12.56-15.15,1.27-37.71,7.92-86.24,40.21-95.2,91.24-8.96,51.04,14.79,90.2,70.62,111.45,11.74,4.24,25.61,8.1,39.74,11.93v102.34c-8.57-.86-16.53-2.36-23.07-4.7-22.71-8.12-45.6-38.17-48.52-41.5-2.38-2.72-6.08-5.9-10.02-5.41-1.26.16-2.68,1.34-3.8,1.99-8.54,4.95-17.08,9.9-25.62,14.85-5.16,2.99-10.32,5.98-15.48,8.97-3.65,2.12-4.85,6.83-2.55,10.38,8.51,13.11,30.25,42.78,62.64,60.41,15.2,6.38,39.4,11.65,66.4,13.35v42.95c0,4.95,4.01,8.96,8.96,8.96h27.5c4.95,0,8.96-4.01,8.96-8.96v-43.73c14.52-1.51,28.91-4.34,42.34-8.81,30.62-11.67,62.7-48.33,62.08-91.45-.62-43.12-19.63-78.59-54.16-92.81ZM2564.47,1012.83c-7.66-1.09-36.25-8.23-31.04-50.1,1.82-14.65,7.72-30.33,21.87-37.06,6.19-2.95,13.43-3.5,20.26-3.77v92.92c-3.57-.66-7.23-1.32-11.09-1.99ZM2641.86,1172.04c-6.45,1.94-13.55,3.45-20.88,4.57v-87.77c14.12,4.8,25.98,10.06,32.76,16.33,19.37,17.92,15.83,58.54-11.88,66.87Z"/>
      <path class="st2" d="M2925.29,941.23l-119.02,57.46c-4.32,2.09-4.82,8.04-.92,10.82l35.26,25.09c-39.32,90.54-89.33,174.9-212.14,275.96-95.67,77.41-234.57,133.33-239.57,136.24-5,2.92-6.25,13.75,9.17,9.58s125.73-42.08,267.85-144.16c127.23-91.38,200.19-194.93,228.16-239.58l26.79,19.07c4.12,2.93,9.84.07,9.96-4.98l3.5-139.67c.12-4.72-4.8-7.89-9.05-5.84Z"/>
      <rect class="st2" x="2861.48" y="1185.06" width="75.83" height="363.93" rx="6.2" ry="6.2"/>
      <rect class="st2" x="2736.49" y="1307.29" width="75.83" height="241.7" rx="5.05" ry="5.05"/>
      <rect class="st2" x="2612.75" y="1398.69" width="75.83" height="154.05" rx="4.03" ry="4.03"/>
      <rect class="st2" x="2486.5" y="1461.81" width="75.83" height="90.93" rx="3.1" ry="3.1"/>
      <path class="st4" d="M2665.5,960.19c1.33,1.48,2.71,2.9,3.97,4.43,1.45,1.76,2.67,3.73,4.02,5.56,1.03,1.41,2.3,2.1,3.67,2.33.06.01.13-.01.19,0-2.27-2.72-4.63-5.38-7.1-7.92-1.51-1.55-3.16-2.93-4.75-4.39Z"/>
      <path class="st4" d="M2583.94,930.34c-2.76.11-5.58.31-8.38.66v83.82c-3.57-.66-7.23-1.32-11.09-1.99-3.15-.45-9.83-1.97-16.25-6.46,7.84,11.32,20.02,14.24,24.63,14.9,3.86.67,7.52,1.33,11.09,1.99v-92.92Z"/>
      <path class="st4" d="M2477.05,1199.27c-10.43-11.17-17.93-21.76-22.15-28.27-2.3-3.55-1.11-8.26,2.55-10.38,5.16-2.99,10.32-5.98,15.48-8.97,8.54-4.95,17.08-9.9,25.62-14.85,1.11-.64,2.53-1.83,3.8-1.99,1.85-.23,3.62.39,5.25,1.34-1.82-2.18-3.07-3.75-3.61-4.37-2.38-2.72-6.08-5.9-10.02-5.41-1.26.16-2.68,1.34-3.8,1.99-8.54,4.95-17.08,9.9-25.62,14.85-5.16,2.99-10.32,5.98-15.48,8.97-3.65,2.12-4.85,6.83-2.55,10.38,5.28,8.14,15.68,22.65,30.53,36.7Z"/>
      <path class="st4" d="M2560.87,1181.73c6.54,2.34,14.5,3.83,23.07,4.7v-102.34c-2.81-.76-5.6-1.53-8.38-2.3v96.2c-8.57-.86-16.53-2.36-23.07-4.7-9.76-3.49-19.54-11.04-27.77-18.77,9.38,10.06,22.78,22.42,36.16,27.2Z"/>
      <path class="st4" d="M2641.86,1172.04c-3.94,1.19-8.17,2.16-12.5,3.03v9.98c7.33-1.13,14.43-2.63,20.88-4.57,27.71-8.33,31.25-48.96,11.88-66.87-.99-.92-2.3-1.77-3.5-2.64,13.52,19.68,8.29,53.54-16.76,61.07Z"/>
      <path class="st4" d="M2679.61,1050.9c7.99,3.29,15.04,7.82,21.33,13.21-8.06-9.29-17.91-16.79-29.72-21.65-14.92-6.14-28.02-10.92-41.87-15.08v5.97c17.14,4.71,32.35,10.17,50.26,17.55Z"/>
      <path class="st4" d="M2706.85,905.31c-2.34-2.71-4.91-5.4-7.91-8.05-11.3-10.43-37.79-24.07-69.58-31.75v6.49c35.12,7.06,64.95,22.02,77.49,33.31Z"/>
      <path class="st4" d="M2473.59,960.7c8.96-51.04,57.5-83.33,95.2-91.24,5.04-.7,10.1-1.06,15.15-1.27v-34.62c0-4.95,4.01-8.96,8.96-8.96h27.5c.17,0,.32.09.49.1-.23-4.74-4.08-8.54-8.87-8.54h-27.5c-4.95,0-8.96,4.01-8.96,8.96v34.62c-5.06.21-10.12.56-15.15,1.27-37.71,7.92-86.24,40.21-95.2,91.24-6.19,35.27,3.26,64.86,28.1,86.8-18.48-20.87-25.15-47.41-19.72-78.36Z"/>
      <path class="st4" d="M2583.94,1244.76c-2.83-.18-5.62-.42-8.38-.67v35.18c0,4.77,3.76,8.59,8.47,8.86,0-.15-.08-.27-.08-.42v-42.95Z"/>
      <path class="st4" d="M2395.5,1456.86c.51-.64,1.11-1.21,1.79-1.61,5-2.92,143.89-58.83,239.57-136.24,122.81-101.07,172.82-185.42,212.14-275.96l-9.22-6.56c-39.2,89.83-89.35,173.72-211.31,274.09-95.67,77.41-234.57,133.33-239.57,136.24-4.68,2.73-5.89,12.24,6.59,10.05Z"/>
      <path class="st4" d="M2814.66,1007.13l119.02-57.46c.2-.1.4-.04.61-.12l.06-2.48c.12-4.72-4.8-7.89-9.05-5.84l-119.02,57.46c-4.32,2.09-4.82,8.04-.92,10.82l6.01,4.27c-.41-2.59.61-5.36,3.29-6.66Z"/>
      <path class="st4" d="M2876.06,1193.5h61.25v-2.24c0-3.42-2.78-6.2-6.2-6.2h-63.43c-3.42,0-6.2,2.77-6.2,6.2v351.54c0,3.42,2.78,6.2,6.2,6.2h2.18v-349.3c0-3.42,2.78-6.2,6.2-6.2Z"/>
      <path class="st4" d="M2749.92,1315.73h62.39v-3.39c0-2.79-2.26-5.05-5.05-5.05h-65.73c-2.79,0-5.05,2.26-5.05,5.05v231.6c0,2.79,2.26,5.05,5.05,5.05h3.33v-228.22c0-2.79,2.26-5.05,5.05-5.05Z"/>
      <path class="st4" d="M2625.16,1407.13h63.42v-4.4c0-2.23-1.81-4.03-4.03-4.03h-67.77c-2.23,0-4.03,1.81-4.03,4.03v145.99c0,2.23,1.81,4.03,4.03,4.03h4.35v-141.58c0-2.23,1.81-4.03,4.03-4.03Z"/>
      <path class="st4" d="M2497.99,1470.25h64.35v-5.34c0-1.71-1.39-3.1-3.1-3.1h-69.63c-1.71,0-3.1,1.39-3.1,3.1v84.74c0,1.71,1.39,3.1,3.1,3.1h5.28v-79.4c0-1.71,1.39-3.1,3.1-3.1Z"/>
    </g>
  </g>
</svg>